M48
; DRILL file {KiCad 8.0.8} date 2026-02-07T15:52:36+0100
; FORMAT={-:-/ absolute / inch / decimal}
; #@! TF.CreationDate,2026-02-07T15:52:36+01:00
; #@! TF.GenerationSoftware,Kicad,Pcbnew,8.0.8
; #@! TF.FileFunction,Plated,1,2,PTH
FMAT,2
INCH
; #@! TA.AperFunction,Plated,PTH,ViaDrill
T1C0.0236
; #@! TA.AperFunction,Plated,PTH,ViaDrill
T2C0.0276
; #@! TA.AperFunction,Plated,PTH,ComponentDrill
T3C0.0295
; #@! TA.AperFunction,Plated,PTH,ComponentDrill
T4C0.0315
; #@! TA.AperFunction,Plated,PTH,ComponentDrill
T5C0.0394
; #@! TA.AperFunction,Plated,PTH,ComponentDrill
T6C0.0400
; #@! TA.AperFunction,Plated,PTH,ComponentDrill
T7C0.0402
; #@! TA.AperFunction,Plated,PTH,ComponentDrill
T8C0.1083
; #@! TA.AperFunction,Plated,PTH,ComponentDrill
T9C0.1260
%
G90
G05
T1
X0.8071Y0.2362
X1.3976Y0.2362
T2
X0.8661Y3.248
X1.3976Y3.7598
X1.437Y3.5827
X2.0079Y3.7598
T3
X3.6811Y2.2835
X3.7205Y1.9094
X3.7598Y2.2835
X3.7992Y1.9094
X3.8386Y2.2835
X3.878Y1.9094
X3.8976Y1.4173
X3.8976Y1.3386
X3.9173Y2.2835
X3.9567Y1.9094
X3.9961Y2.2835
X4.0354Y1.9094
X4.3898Y2.8543
X4.4094Y4.0748
X4.4094Y3.7205
X4.4094Y3.2087
X4.4685Y2.8543
X4.4882Y4.0748
X4.4882Y3.7205
X4.4882Y3.2087
X4.4882Y2.3228
X4.4882Y1.4567
X4.4882Y1.378
X4.5079Y1.9488
X4.5472Y2.8543
X4.5669Y4.0748
X4.5669Y3.7205
X4.5669Y3.2087
X4.5669Y2.3228
X4.5866Y1.9488
X4.626Y2.8543
X4.6457Y4.0748
X4.6457Y3.7205
X4.6457Y3.2087
X4.6457Y2.3228
X4.6654Y1.9488
X4.7047Y2.8543
X4.7244Y4.0748
X4.7244Y3.7205
X4.7244Y3.2087
T4
X3.5961Y3.7008
X3.5992Y4.1535
X3.5992Y2.8346
X3.6024Y3.9173
X3.6189Y3.5039
X3.6189Y2.6575
X3.7142Y3.2874
X3.7173Y3.0906
X3.9961Y3.7008
X3.9992Y4.1535
X3.9992Y2.8346
X4.0024Y3.9173
X4.0189Y3.5039
X4.0189Y2.6575
X4.1142Y3.2874
X4.1173Y3.0906
X4.311Y1.2402
X4.311Y0.8402
X4.5866Y0.9874
X4.5866Y0.5874
T5
X0.2559Y1.6157
X0.2559Y1.5157
X0.2559Y1.4157
X0.2559Y1.3157
X0.2559Y1.2157
X0.2559Y1.1157
X0.2559Y1.0157
X0.2559Y0.9157
X0.2559Y0.8157
X0.2559Y0.7157
X0.2559Y0.6157
X0.2559Y0.5157
X0.6299Y2.7175
X0.6299Y2.6175
X0.6299Y2.5175
T6
X1.0537Y0.7193
X1.0537Y0.6193
X1.1537Y0.7193
X1.1537Y0.6193
X1.2537Y0.7193
X1.2537Y0.6193
X1.3537Y0.7193
X1.3537Y0.6193
X1.4537Y0.7193
X1.4537Y0.6193
X1.5537Y0.7193
X1.5537Y0.6193
X1.6537Y0.7193
X1.6537Y0.6193
X1.7537Y0.7193
X1.7537Y0.6193
X1.8537Y0.7193
X1.8537Y0.6193
X1.9537Y0.7193
X1.9537Y0.6193
X2.0537Y0.7193
X2.0537Y0.6193
X2.1537Y0.7193
X2.1537Y0.6193
X2.2537Y0.7193
X2.2537Y0.6193
X2.3537Y0.7193
X2.3537Y0.6193
X2.4537Y0.7193
X2.4537Y0.6193
X2.5537Y0.7193
X2.5537Y0.6193
X2.6537Y0.7193
X2.6537Y0.6193
X2.7537Y0.7193
X2.7537Y0.6193
X2.8537Y0.7193
X2.8537Y0.6193
X2.9537Y0.7193
X2.9537Y0.6193
X3.0939Y0.4782
X3.0939Y0.3782
X3.1939Y0.4782
X3.1939Y0.3782
T7
X0.876Y3.0319
X0.876Y2.9319
X0.876Y2.8319
X0.876Y2.7319
X0.876Y2.6319
X0.876Y2.5319
X0.876Y2.4319
X0.876Y2.3319
X0.876Y2.2319
X0.876Y2.1319
X0.876Y2.0319
X0.876Y1.9319
X0.876Y1.8319
X0.876Y1.7319
X0.876Y1.6319
X0.876Y1.5319
X0.876Y1.4319
X0.876Y1.3319
X0.876Y1.2319
X0.976Y3.0319
X0.976Y2.9319
X0.976Y2.8319
X0.976Y2.7319
X0.976Y2.6319
X0.976Y2.5319
X0.976Y2.4319
X0.976Y2.3319
X0.976Y2.2319
X0.976Y2.1319
X0.976Y2.0319
X0.976Y1.9319
X0.976Y1.8319
X0.976Y1.7319
X0.976Y1.6319
X0.976Y1.5319
X0.976Y1.4319
X0.976Y1.3319
X0.976Y1.2319
X3.276Y3.0319
X3.276Y2.9319
X3.276Y2.8319
X3.276Y2.7319
X3.276Y2.6319
X3.276Y2.5319
X3.276Y2.4319
X3.276Y2.3319
X3.276Y2.2319
X3.276Y2.1319
X3.276Y2.0319
X3.276Y1.9319
X3.276Y1.8319
X3.276Y1.7319
X3.276Y1.6319
X3.276Y1.5319
X3.276Y1.4319
X3.276Y1.3319
X3.276Y1.2319
X3.376Y3.0319
X3.376Y2.9319
X3.376Y2.8319
X3.376Y2.7319
X3.376Y2.6319
X3.376Y2.5319
X3.376Y2.4319
X3.376Y2.3319
X3.376Y2.2319
X3.376Y2.1319
X3.376Y2.0319
X3.376Y1.9319
X3.376Y1.8319
X3.376Y1.7319
X3.376Y1.6319
X3.376Y1.5319
X3.376Y1.4319
X3.376Y1.3319
X3.376Y1.2319
T8
X0.862Y0.6693
X0.862Y-1.2598
X3.1455Y0.6693
X3.1455Y-1.2598
T9
X0.1969Y0.1772
X0.2362Y4.3701
X5.0984Y4.3701
X5.1181Y0.1969
M30
