%TF.GenerationSoftware,KiCad,Pcbnew,8.0.8*%
%TF.CreationDate,2026-02-07T15:50:32+01:00*%
%TF.ProjectId,connectique_Cop_Ensim_Elec,636f6e6e-6563-4746-9971-75655f436f70,rev?*%
%TF.SameCoordinates,PX3567e00PY8321560*%
%TF.FileFunction,Soldermask,Top*%
%TF.FilePolarity,Negative*%
%FSLAX46Y46*%
G04 Gerber Fmt 4.6, Leading zero omitted, Abs format (unit mm)*
G04 Created by KiCad (PCBNEW 8.0.8) date 2026-02-07 15:50:32*
%MOMM*%
%LPD*%
G01*
G04 APERTURE LIST*
G04 Aperture macros list*
%AMRoundRect*
0 Rectangle with rounded corners*
0 $1 Rounding radius*
0 $2 $3 $4 $5 $6 $7 $8 $9 X,Y pos of 4 corners*
0 Add a 4 corners polygon primitive as box body*
4,1,4,$2,$3,$4,$5,$6,$7,$8,$9,$2,$3,0*
0 Add four circle primitives for the rounded corners*
1,1,$1+$1,$2,$3*
1,1,$1+$1,$4,$5*
1,1,$1+$1,$6,$7*
1,1,$1+$1,$8,$9*
0 Add four rect primitives between the rounded corners*
20,1,$1+$1,$2,$3,$4,$5,0*
20,1,$1+$1,$4,$5,$6,$7,0*
20,1,$1+$1,$6,$7,$8,$9,0*
20,1,$1+$1,$8,$9,$2,$3,0*%
G04 Aperture macros list end*
%ADD10RoundRect,0.250000X-0.350000X-0.625000X0.350000X-0.625000X0.350000X0.625000X-0.350000X0.625000X0*%
%ADD11O,1.200000X1.750000*%
%ADD12C,1.600000*%
%ADD13O,1.600000X1.600000*%
%ADD14C,1.734000*%
%ADD15RoundRect,0.102000X-0.765000X-0.765000X0.765000X-0.765000X0.765000X0.765000X-0.765000X0.765000X0*%
%ADD16C,3.000000*%
%ADD17C,5.600000*%
%ADD18RoundRect,0.250000X0.625000X-0.350000X0.625000X0.350000X-0.625000X0.350000X-0.625000X-0.350000X0*%
%ADD19O,1.750000X1.200000*%
%ADD20RoundRect,0.102000X-0.762000X-0.762000X0.762000X-0.762000X0.762000X0.762000X-0.762000X0.762000X0*%
%ADD21C,1.728000*%
%ADD22C,6.404000*%
%ADD23R,1.700000X1.700000*%
%ADD24O,1.700000X1.700000*%
G04 APERTURE END LIST*
D10*
%TO.C,J3*%
X114000000Y59000000D03*
D11*
X116000000Y59000000D03*
X118000000Y59000000D03*
%TD*%
D10*
%TO.C,codeur3*%
X111500000Y72500000D03*
D11*
X113500000Y72500000D03*
X115500000Y72500000D03*
X117500000Y72500000D03*
X119500000Y72500000D03*
%TD*%
D12*
%TO.C,R4*%
X101500000Y94000000D03*
D13*
X91340000Y94000000D03*
%TD*%
D12*
%TO.C,R1*%
X101580000Y105500000D03*
D13*
X91420000Y105500000D03*
%TD*%
D12*
%TO.C,R3*%
X116500000Y25080000D03*
D13*
X116500000Y14920000D03*
%TD*%
D14*
%TO.C,gauche1*%
X24790000Y31290000D03*
X22250000Y31290000D03*
X24790000Y33830000D03*
X22250000Y33830000D03*
X24790000Y36370000D03*
X22250000Y36370000D03*
X24790000Y38910000D03*
X22250000Y38910000D03*
X24790000Y41450000D03*
X22250000Y41450000D03*
X24790000Y43990000D03*
X22250000Y43990000D03*
X24790000Y46530000D03*
X22250000Y46530000D03*
X24790000Y49070000D03*
X22250000Y49070000D03*
X24790000Y51610000D03*
X22250000Y51610000D03*
X24790000Y54150000D03*
X22250000Y54150000D03*
X24790000Y56690000D03*
X22250000Y56690000D03*
X24790000Y59230000D03*
X22250000Y59230000D03*
X24790000Y61770000D03*
X22250000Y61770000D03*
X24790000Y64310000D03*
X22250000Y64310000D03*
X24790000Y66850000D03*
X22250000Y66850000D03*
X24790000Y69390000D03*
X22250000Y69390000D03*
X24790000Y71930000D03*
X22250000Y71930000D03*
X24790000Y74470000D03*
X22250000Y74470000D03*
X24790000Y77010000D03*
D15*
X22250000Y77010000D03*
D16*
X78130000Y79550000D03*
X62890000Y28750000D03*
X29870000Y80820000D03*
%TD*%
D17*
%TO.C,H3*%
X130000000Y5000000D03*
%TD*%
D12*
%TO.C,R6*%
X101580000Y72000000D03*
D13*
X91420000Y72000000D03*
%TD*%
D12*
%TO.C,R7*%
X102080000Y67500000D03*
D13*
X91920000Y67500000D03*
%TD*%
D10*
%TO.C,codeur2*%
X112000000Y94500000D03*
D11*
X114000000Y94500000D03*
X116000000Y94500000D03*
X118000000Y94500000D03*
X120000000Y94500000D03*
%TD*%
D18*
%TO.C,LED1*%
X114000000Y35000000D03*
D19*
X114000000Y37000000D03*
%TD*%
D12*
%TO.C,R10*%
X109500000Y31500000D03*
D13*
X109500000Y21340000D03*
%TD*%
D20*
%TO.C,Rasp1*%
X26765000Y15730000D03*
D21*
X26765000Y18270000D03*
X29305000Y15730000D03*
X29305000Y18270000D03*
X31845000Y15730000D03*
X31845000Y18270000D03*
X34385000Y15730000D03*
X34385000Y18270000D03*
X36925000Y15730000D03*
X36925000Y18270000D03*
X39465000Y15730000D03*
X39465000Y18270000D03*
X42005000Y15730000D03*
X42005000Y18270000D03*
X44545000Y15730000D03*
X44545000Y18270000D03*
X47085000Y15730000D03*
X47085000Y18270000D03*
X49625000Y15730000D03*
X49625000Y18270000D03*
X52165000Y15730000D03*
X52165000Y18270000D03*
X54705000Y15730000D03*
X54705000Y18270000D03*
X57245000Y15730000D03*
X57245000Y18270000D03*
X59785000Y15730000D03*
X59785000Y18270000D03*
X62325000Y15730000D03*
X62325000Y18270000D03*
X64865000Y15730000D03*
X64865000Y18270000D03*
X67405000Y15730000D03*
X67405000Y18270000D03*
X69945000Y15730000D03*
X69945000Y18270000D03*
X72485000Y15730000D03*
X72485000Y18270000D03*
X75025000Y15730000D03*
X75025000Y18270000D03*
X81125000Y9607000D03*
X81125000Y12147000D03*
X78585000Y9607000D03*
X78585000Y12147000D03*
D22*
X21895000Y17000000D03*
X79895000Y17000000D03*
X79895000Y-32000000D03*
X21895000Y-32000000D03*
%TD*%
D12*
%TO.C,R2*%
X101660000Y99500000D03*
D13*
X91500000Y99500000D03*
%TD*%
D10*
%TO.C,codeur1*%
X112000000Y103500000D03*
D11*
X114000000Y103500000D03*
X116000000Y103500000D03*
X118000000Y103500000D03*
X120000000Y103500000D03*
%TD*%
D23*
%TO.C,J2*%
X16000000Y69025000D03*
D24*
X16000000Y66485000D03*
X16000000Y63945000D03*
%TD*%
D10*
%TO.C,Busmoteur1*%
X93500000Y58000000D03*
D11*
X95500000Y58000000D03*
X97500000Y58000000D03*
X99500000Y58000000D03*
X101500000Y58000000D03*
%TD*%
D10*
%TO.C,codeur4*%
X112000000Y81500000D03*
D11*
X114000000Y81500000D03*
X116000000Y81500000D03*
X118000000Y81500000D03*
X120000000Y81500000D03*
%TD*%
D12*
%TO.C,R9*%
X104580000Y78500000D03*
D13*
X94420000Y78500000D03*
%TD*%
D12*
%TO.C,R5*%
X102080000Y89000000D03*
D13*
X91920000Y89000000D03*
%TD*%
D12*
%TO.C,R8*%
X104500000Y83500000D03*
D13*
X94340000Y83500000D03*
%TD*%
D17*
%TO.C,H2*%
X129500000Y111000000D03*
%TD*%
D18*
%TO.C,JACK1*%
X99000000Y34000000D03*
D19*
X99000000Y36000000D03*
%TD*%
D17*
%TO.C,H4*%
X5000000Y4500000D03*
%TD*%
%TO.C,H1*%
X6000000Y111000000D03*
%TD*%
D10*
%TO.C,Busmoteur2*%
X94500000Y48500000D03*
D11*
X96500000Y48500000D03*
X98500000Y48500000D03*
X100500000Y48500000D03*
X102500000Y48500000D03*
%TD*%
D14*
%TO.C,droite1*%
X85750000Y31290000D03*
X83210000Y31290000D03*
X85750000Y33830000D03*
X83210000Y33830000D03*
X85750000Y36370000D03*
X83210000Y36370000D03*
X85750000Y38910000D03*
X83210000Y38910000D03*
X85750000Y41450000D03*
X83210000Y41450000D03*
X85750000Y43990000D03*
X83210000Y43990000D03*
X85750000Y46530000D03*
X83210000Y46530000D03*
X85750000Y49070000D03*
X83210000Y49070000D03*
X85750000Y51610000D03*
X83210000Y51610000D03*
X85750000Y54150000D03*
X83210000Y54150000D03*
X85750000Y56690000D03*
X83210000Y56690000D03*
X85750000Y59230000D03*
X83210000Y59230000D03*
X85750000Y61770000D03*
X83210000Y61770000D03*
X85750000Y64310000D03*
X83210000Y64310000D03*
X85750000Y66850000D03*
X83210000Y66850000D03*
X85750000Y69390000D03*
X83210000Y69390000D03*
X85750000Y71930000D03*
X83210000Y71930000D03*
X85750000Y74470000D03*
X83210000Y74470000D03*
X85750000Y77010000D03*
D15*
X83210000Y77010000D03*
D16*
X78130000Y79550000D03*
X62890000Y28750000D03*
X29870000Y80820000D03*
%TD*%
D23*
%TO.C,J1*%
X6500000Y41040000D03*
D24*
X6500000Y38500000D03*
X6500000Y35960000D03*
X6500000Y33420000D03*
X6500000Y30880000D03*
X6500000Y28340000D03*
X6500000Y25800000D03*
X6500000Y23260000D03*
X6500000Y20720000D03*
X6500000Y18180000D03*
X6500000Y15640000D03*
X6500000Y13100000D03*
%TD*%
D10*
%TO.C,J4*%
X114500000Y49500000D03*
D11*
X116500000Y49500000D03*
X118500000Y49500000D03*
%TD*%
M02*
