%TF.GenerationSoftware,KiCad,Pcbnew,8.0.8*%
%TF.CreationDate,2026-02-07T15:50:32+01:00*%
%TF.ProjectId,connectique_Cop_Ensim_Elec,636f6e6e-6563-4746-9971-75655f436f70,rev?*%
%TF.SameCoordinates,PX3567e00PY8321560*%
%TF.FileFunction,Legend,Top*%
%TF.FilePolarity,Positive*%
%FSLAX46Y46*%
G04 Gerber Fmt 4.6, Leading zero omitted, Abs format (unit mm)*
G04 Created by KiCad (PCBNEW 8.0.8) date 2026-02-07 15:50:32*
%MOMM*%
%LPD*%
G01*
G04 APERTURE LIST*
%ADD10C,0.150000*%
%ADD11C,0.120000*%
%ADD12C,0.200000*%
%ADD13C,0.127000*%
%ADD14C,0.400000*%
G04 APERTURE END LIST*
D10*
X115666666Y62445181D02*
X115666666Y61730896D01*
X115666666Y61730896D02*
X115619047Y61588039D01*
X115619047Y61588039D02*
X115523809Y61492800D01*
X115523809Y61492800D02*
X115380952Y61445181D01*
X115380952Y61445181D02*
X115285714Y61445181D01*
X116047619Y62445181D02*
X116666666Y62445181D01*
X116666666Y62445181D02*
X116333333Y62064229D01*
X116333333Y62064229D02*
X116476190Y62064229D01*
X116476190Y62064229D02*
X116571428Y62016610D01*
X116571428Y62016610D02*
X116619047Y61968991D01*
X116619047Y61968991D02*
X116666666Y61873753D01*
X116666666Y61873753D02*
X116666666Y61635658D01*
X116666666Y61635658D02*
X116619047Y61540420D01*
X116619047Y61540420D02*
X116571428Y61492800D01*
X116571428Y61492800D02*
X116476190Y61445181D01*
X116476190Y61445181D02*
X116190476Y61445181D01*
X116190476Y61445181D02*
X116095238Y61492800D01*
X116095238Y61492800D02*
X116047619Y61540420D01*
X113166666Y74992800D02*
X113071428Y74945181D01*
X113071428Y74945181D02*
X112880952Y74945181D01*
X112880952Y74945181D02*
X112785714Y74992800D01*
X112785714Y74992800D02*
X112738095Y75040420D01*
X112738095Y75040420D02*
X112690476Y75135658D01*
X112690476Y75135658D02*
X112690476Y75421372D01*
X112690476Y75421372D02*
X112738095Y75516610D01*
X112738095Y75516610D02*
X112785714Y75564229D01*
X112785714Y75564229D02*
X112880952Y75611848D01*
X112880952Y75611848D02*
X113071428Y75611848D01*
X113071428Y75611848D02*
X113166666Y75564229D01*
X113738095Y74945181D02*
X113642857Y74992800D01*
X113642857Y74992800D02*
X113595238Y75040420D01*
X113595238Y75040420D02*
X113547619Y75135658D01*
X113547619Y75135658D02*
X113547619Y75421372D01*
X113547619Y75421372D02*
X113595238Y75516610D01*
X113595238Y75516610D02*
X113642857Y75564229D01*
X113642857Y75564229D02*
X113738095Y75611848D01*
X113738095Y75611848D02*
X113880952Y75611848D01*
X113880952Y75611848D02*
X113976190Y75564229D01*
X113976190Y75564229D02*
X114023809Y75516610D01*
X114023809Y75516610D02*
X114071428Y75421372D01*
X114071428Y75421372D02*
X114071428Y75135658D01*
X114071428Y75135658D02*
X114023809Y75040420D01*
X114023809Y75040420D02*
X113976190Y74992800D01*
X113976190Y74992800D02*
X113880952Y74945181D01*
X113880952Y74945181D02*
X113738095Y74945181D01*
X114928571Y74945181D02*
X114928571Y75945181D01*
X114928571Y74992800D02*
X114833333Y74945181D01*
X114833333Y74945181D02*
X114642857Y74945181D01*
X114642857Y74945181D02*
X114547619Y74992800D01*
X114547619Y74992800D02*
X114500000Y75040420D01*
X114500000Y75040420D02*
X114452381Y75135658D01*
X114452381Y75135658D02*
X114452381Y75421372D01*
X114452381Y75421372D02*
X114500000Y75516610D01*
X114500000Y75516610D02*
X114547619Y75564229D01*
X114547619Y75564229D02*
X114642857Y75611848D01*
X114642857Y75611848D02*
X114833333Y75611848D01*
X114833333Y75611848D02*
X114928571Y75564229D01*
X115785714Y74992800D02*
X115690476Y74945181D01*
X115690476Y74945181D02*
X115500000Y74945181D01*
X115500000Y74945181D02*
X115404762Y74992800D01*
X115404762Y74992800D02*
X115357143Y75088039D01*
X115357143Y75088039D02*
X115357143Y75468991D01*
X115357143Y75468991D02*
X115404762Y75564229D01*
X115404762Y75564229D02*
X115500000Y75611848D01*
X115500000Y75611848D02*
X115690476Y75611848D01*
X115690476Y75611848D02*
X115785714Y75564229D01*
X115785714Y75564229D02*
X115833333Y75468991D01*
X115833333Y75468991D02*
X115833333Y75373753D01*
X115833333Y75373753D02*
X115357143Y75278515D01*
X116690476Y75611848D02*
X116690476Y74945181D01*
X116261905Y75611848D02*
X116261905Y75088039D01*
X116261905Y75088039D02*
X116309524Y74992800D01*
X116309524Y74992800D02*
X116404762Y74945181D01*
X116404762Y74945181D02*
X116547619Y74945181D01*
X116547619Y74945181D02*
X116642857Y74992800D01*
X116642857Y74992800D02*
X116690476Y75040420D01*
X117166667Y74945181D02*
X117166667Y75611848D01*
X117166667Y75421372D02*
X117214286Y75516610D01*
X117214286Y75516610D02*
X117261905Y75564229D01*
X117261905Y75564229D02*
X117357143Y75611848D01*
X117357143Y75611848D02*
X117452381Y75611848D01*
X117690477Y75945181D02*
X118309524Y75945181D01*
X118309524Y75945181D02*
X117976191Y75564229D01*
X117976191Y75564229D02*
X118119048Y75564229D01*
X118119048Y75564229D02*
X118214286Y75516610D01*
X118214286Y75516610D02*
X118261905Y75468991D01*
X118261905Y75468991D02*
X118309524Y75373753D01*
X118309524Y75373753D02*
X118309524Y75135658D01*
X118309524Y75135658D02*
X118261905Y75040420D01*
X118261905Y75040420D02*
X118214286Y74992800D01*
X118214286Y74992800D02*
X118119048Y74945181D01*
X118119048Y74945181D02*
X117833334Y74945181D01*
X117833334Y74945181D02*
X117738096Y74992800D01*
X117738096Y74992800D02*
X117690477Y75040420D01*
X96253333Y91175181D02*
X95920000Y91651372D01*
X95681905Y91175181D02*
X95681905Y92175181D01*
X95681905Y92175181D02*
X96062857Y92175181D01*
X96062857Y92175181D02*
X96158095Y92127562D01*
X96158095Y92127562D02*
X96205714Y92079943D01*
X96205714Y92079943D02*
X96253333Y91984705D01*
X96253333Y91984705D02*
X96253333Y91841848D01*
X96253333Y91841848D02*
X96205714Y91746610D01*
X96205714Y91746610D02*
X96158095Y91698991D01*
X96158095Y91698991D02*
X96062857Y91651372D01*
X96062857Y91651372D02*
X95681905Y91651372D01*
X97110476Y91841848D02*
X97110476Y91175181D01*
X96872381Y92222800D02*
X96634286Y91508515D01*
X96634286Y91508515D02*
X97253333Y91508515D01*
X96333333Y102675181D02*
X96000000Y103151372D01*
X95761905Y102675181D02*
X95761905Y103675181D01*
X95761905Y103675181D02*
X96142857Y103675181D01*
X96142857Y103675181D02*
X96238095Y103627562D01*
X96238095Y103627562D02*
X96285714Y103579943D01*
X96285714Y103579943D02*
X96333333Y103484705D01*
X96333333Y103484705D02*
X96333333Y103341848D01*
X96333333Y103341848D02*
X96285714Y103246610D01*
X96285714Y103246610D02*
X96238095Y103198991D01*
X96238095Y103198991D02*
X96142857Y103151372D01*
X96142857Y103151372D02*
X95761905Y103151372D01*
X97285714Y102675181D02*
X96714286Y102675181D01*
X97000000Y102675181D02*
X97000000Y103675181D01*
X97000000Y103675181D02*
X96904762Y103532324D01*
X96904762Y103532324D02*
X96809524Y103437086D01*
X96809524Y103437086D02*
X96714286Y103389467D01*
X119324819Y19833334D02*
X118848628Y19500001D01*
X119324819Y19261906D02*
X118324819Y19261906D01*
X118324819Y19261906D02*
X118324819Y19642858D01*
X118324819Y19642858D02*
X118372438Y19738096D01*
X118372438Y19738096D02*
X118420057Y19785715D01*
X118420057Y19785715D02*
X118515295Y19833334D01*
X118515295Y19833334D02*
X118658152Y19833334D01*
X118658152Y19833334D02*
X118753390Y19785715D01*
X118753390Y19785715D02*
X118801009Y19738096D01*
X118801009Y19738096D02*
X118848628Y19642858D01*
X118848628Y19642858D02*
X118848628Y19261906D01*
X118324819Y20166668D02*
X118324819Y20785715D01*
X118324819Y20785715D02*
X118705771Y20452382D01*
X118705771Y20452382D02*
X118705771Y20595239D01*
X118705771Y20595239D02*
X118753390Y20690477D01*
X118753390Y20690477D02*
X118801009Y20738096D01*
X118801009Y20738096D02*
X118896247Y20785715D01*
X118896247Y20785715D02*
X119134342Y20785715D01*
X119134342Y20785715D02*
X119229580Y20738096D01*
X119229580Y20738096D02*
X119277200Y20690477D01*
X119277200Y20690477D02*
X119324819Y20595239D01*
X119324819Y20595239D02*
X119324819Y20309525D01*
X119324819Y20309525D02*
X119277200Y20214287D01*
X119277200Y20214287D02*
X119229580Y20166668D01*
X19698809Y110346848D02*
X19698809Y109537324D01*
X19698809Y109537324D02*
X19651190Y109442086D01*
X19651190Y109442086D02*
X19603571Y109394467D01*
X19603571Y109394467D02*
X19508333Y109346848D01*
X19508333Y109346848D02*
X19365476Y109346848D01*
X19365476Y109346848D02*
X19270238Y109394467D01*
X19698809Y109727800D02*
X19603571Y109680181D01*
X19603571Y109680181D02*
X19413095Y109680181D01*
X19413095Y109680181D02*
X19317857Y109727800D01*
X19317857Y109727800D02*
X19270238Y109775420D01*
X19270238Y109775420D02*
X19222619Y109870658D01*
X19222619Y109870658D02*
X19222619Y110156372D01*
X19222619Y110156372D02*
X19270238Y110251610D01*
X19270238Y110251610D02*
X19317857Y110299229D01*
X19317857Y110299229D02*
X19413095Y110346848D01*
X19413095Y110346848D02*
X19603571Y110346848D01*
X19603571Y110346848D02*
X19698809Y110299229D01*
X20603571Y109680181D02*
X20603571Y110203991D01*
X20603571Y110203991D02*
X20555952Y110299229D01*
X20555952Y110299229D02*
X20460714Y110346848D01*
X20460714Y110346848D02*
X20270238Y110346848D01*
X20270238Y110346848D02*
X20175000Y110299229D01*
X20603571Y109727800D02*
X20508333Y109680181D01*
X20508333Y109680181D02*
X20270238Y109680181D01*
X20270238Y109680181D02*
X20175000Y109727800D01*
X20175000Y109727800D02*
X20127381Y109823039D01*
X20127381Y109823039D02*
X20127381Y109918277D01*
X20127381Y109918277D02*
X20175000Y110013515D01*
X20175000Y110013515D02*
X20270238Y110061134D01*
X20270238Y110061134D02*
X20508333Y110061134D01*
X20508333Y110061134D02*
X20603571Y110108753D01*
X21508333Y110346848D02*
X21508333Y109680181D01*
X21079762Y110346848D02*
X21079762Y109823039D01*
X21079762Y109823039D02*
X21127381Y109727800D01*
X21127381Y109727800D02*
X21222619Y109680181D01*
X21222619Y109680181D02*
X21365476Y109680181D01*
X21365476Y109680181D02*
X21460714Y109727800D01*
X21460714Y109727800D02*
X21508333Y109775420D01*
X22413095Y109727800D02*
X22317857Y109680181D01*
X22317857Y109680181D02*
X22127381Y109680181D01*
X22127381Y109680181D02*
X22032143Y109727800D01*
X22032143Y109727800D02*
X21984524Y109775420D01*
X21984524Y109775420D02*
X21936905Y109870658D01*
X21936905Y109870658D02*
X21936905Y110156372D01*
X21936905Y110156372D02*
X21984524Y110251610D01*
X21984524Y110251610D02*
X22032143Y110299229D01*
X22032143Y110299229D02*
X22127381Y110346848D01*
X22127381Y110346848D02*
X22317857Y110346848D01*
X22317857Y110346848D02*
X22413095Y110299229D01*
X22841667Y109680181D02*
X22841667Y110680181D01*
X23270238Y109680181D02*
X23270238Y110203991D01*
X23270238Y110203991D02*
X23222619Y110299229D01*
X23222619Y110299229D02*
X23127381Y110346848D01*
X23127381Y110346848D02*
X22984524Y110346848D01*
X22984524Y110346848D02*
X22889286Y110299229D01*
X22889286Y110299229D02*
X22841667Y110251610D01*
X24127381Y109727800D02*
X24032143Y109680181D01*
X24032143Y109680181D02*
X23841667Y109680181D01*
X23841667Y109680181D02*
X23746429Y109727800D01*
X23746429Y109727800D02*
X23698810Y109823039D01*
X23698810Y109823039D02*
X23698810Y110203991D01*
X23698810Y110203991D02*
X23746429Y110299229D01*
X23746429Y110299229D02*
X23841667Y110346848D01*
X23841667Y110346848D02*
X24032143Y110346848D01*
X24032143Y110346848D02*
X24127381Y110299229D01*
X24127381Y110299229D02*
X24175000Y110203991D01*
X24175000Y110203991D02*
X24175000Y110108753D01*
X24175000Y110108753D02*
X23698810Y110013515D01*
X25127381Y109680181D02*
X24555953Y109680181D01*
X24841667Y109680181D02*
X24841667Y110680181D01*
X24841667Y110680181D02*
X24746429Y110537324D01*
X24746429Y110537324D02*
X24651191Y110442086D01*
X24651191Y110442086D02*
X24555953Y110394467D01*
X129238095Y8345181D02*
X129238095Y9345181D01*
X129238095Y8868991D02*
X129809523Y8868991D01*
X129809523Y8345181D02*
X129809523Y9345181D01*
X130190476Y9345181D02*
X130809523Y9345181D01*
X130809523Y9345181D02*
X130476190Y8964229D01*
X130476190Y8964229D02*
X130619047Y8964229D01*
X130619047Y8964229D02*
X130714285Y8916610D01*
X130714285Y8916610D02*
X130761904Y8868991D01*
X130761904Y8868991D02*
X130809523Y8773753D01*
X130809523Y8773753D02*
X130809523Y8535658D01*
X130809523Y8535658D02*
X130761904Y8440420D01*
X130761904Y8440420D02*
X130714285Y8392800D01*
X130714285Y8392800D02*
X130619047Y8345181D01*
X130619047Y8345181D02*
X130333333Y8345181D01*
X130333333Y8345181D02*
X130238095Y8392800D01*
X130238095Y8392800D02*
X130190476Y8440420D01*
X96333333Y69175181D02*
X96000000Y69651372D01*
X95761905Y69175181D02*
X95761905Y70175181D01*
X95761905Y70175181D02*
X96142857Y70175181D01*
X96142857Y70175181D02*
X96238095Y70127562D01*
X96238095Y70127562D02*
X96285714Y70079943D01*
X96285714Y70079943D02*
X96333333Y69984705D01*
X96333333Y69984705D02*
X96333333Y69841848D01*
X96333333Y69841848D02*
X96285714Y69746610D01*
X96285714Y69746610D02*
X96238095Y69698991D01*
X96238095Y69698991D02*
X96142857Y69651372D01*
X96142857Y69651372D02*
X95761905Y69651372D01*
X97190476Y70175181D02*
X97000000Y70175181D01*
X97000000Y70175181D02*
X96904762Y70127562D01*
X96904762Y70127562D02*
X96857143Y70079943D01*
X96857143Y70079943D02*
X96761905Y69937086D01*
X96761905Y69937086D02*
X96714286Y69746610D01*
X96714286Y69746610D02*
X96714286Y69365658D01*
X96714286Y69365658D02*
X96761905Y69270420D01*
X96761905Y69270420D02*
X96809524Y69222800D01*
X96809524Y69222800D02*
X96904762Y69175181D01*
X96904762Y69175181D02*
X97095238Y69175181D01*
X97095238Y69175181D02*
X97190476Y69222800D01*
X97190476Y69222800D02*
X97238095Y69270420D01*
X97238095Y69270420D02*
X97285714Y69365658D01*
X97285714Y69365658D02*
X97285714Y69603753D01*
X97285714Y69603753D02*
X97238095Y69698991D01*
X97238095Y69698991D02*
X97190476Y69746610D01*
X97190476Y69746610D02*
X97095238Y69794229D01*
X97095238Y69794229D02*
X96904762Y69794229D01*
X96904762Y69794229D02*
X96809524Y69746610D01*
X96809524Y69746610D02*
X96761905Y69698991D01*
X96761905Y69698991D02*
X96714286Y69603753D01*
X96833333Y64675181D02*
X96500000Y65151372D01*
X96261905Y64675181D02*
X96261905Y65675181D01*
X96261905Y65675181D02*
X96642857Y65675181D01*
X96642857Y65675181D02*
X96738095Y65627562D01*
X96738095Y65627562D02*
X96785714Y65579943D01*
X96785714Y65579943D02*
X96833333Y65484705D01*
X96833333Y65484705D02*
X96833333Y65341848D01*
X96833333Y65341848D02*
X96785714Y65246610D01*
X96785714Y65246610D02*
X96738095Y65198991D01*
X96738095Y65198991D02*
X96642857Y65151372D01*
X96642857Y65151372D02*
X96261905Y65151372D01*
X97166667Y65675181D02*
X97833333Y65675181D01*
X97833333Y65675181D02*
X97404762Y64675181D01*
X113666666Y96992800D02*
X113571428Y96945181D01*
X113571428Y96945181D02*
X113380952Y96945181D01*
X113380952Y96945181D02*
X113285714Y96992800D01*
X113285714Y96992800D02*
X113238095Y97040420D01*
X113238095Y97040420D02*
X113190476Y97135658D01*
X113190476Y97135658D02*
X113190476Y97421372D01*
X113190476Y97421372D02*
X113238095Y97516610D01*
X113238095Y97516610D02*
X113285714Y97564229D01*
X113285714Y97564229D02*
X113380952Y97611848D01*
X113380952Y97611848D02*
X113571428Y97611848D01*
X113571428Y97611848D02*
X113666666Y97564229D01*
X114238095Y96945181D02*
X114142857Y96992800D01*
X114142857Y96992800D02*
X114095238Y97040420D01*
X114095238Y97040420D02*
X114047619Y97135658D01*
X114047619Y97135658D02*
X114047619Y97421372D01*
X114047619Y97421372D02*
X114095238Y97516610D01*
X114095238Y97516610D02*
X114142857Y97564229D01*
X114142857Y97564229D02*
X114238095Y97611848D01*
X114238095Y97611848D02*
X114380952Y97611848D01*
X114380952Y97611848D02*
X114476190Y97564229D01*
X114476190Y97564229D02*
X114523809Y97516610D01*
X114523809Y97516610D02*
X114571428Y97421372D01*
X114571428Y97421372D02*
X114571428Y97135658D01*
X114571428Y97135658D02*
X114523809Y97040420D01*
X114523809Y97040420D02*
X114476190Y96992800D01*
X114476190Y96992800D02*
X114380952Y96945181D01*
X114380952Y96945181D02*
X114238095Y96945181D01*
X115428571Y96945181D02*
X115428571Y97945181D01*
X115428571Y96992800D02*
X115333333Y96945181D01*
X115333333Y96945181D02*
X115142857Y96945181D01*
X115142857Y96945181D02*
X115047619Y96992800D01*
X115047619Y96992800D02*
X115000000Y97040420D01*
X115000000Y97040420D02*
X114952381Y97135658D01*
X114952381Y97135658D02*
X114952381Y97421372D01*
X114952381Y97421372D02*
X115000000Y97516610D01*
X115000000Y97516610D02*
X115047619Y97564229D01*
X115047619Y97564229D02*
X115142857Y97611848D01*
X115142857Y97611848D02*
X115333333Y97611848D01*
X115333333Y97611848D02*
X115428571Y97564229D01*
X116285714Y96992800D02*
X116190476Y96945181D01*
X116190476Y96945181D02*
X116000000Y96945181D01*
X116000000Y96945181D02*
X115904762Y96992800D01*
X115904762Y96992800D02*
X115857143Y97088039D01*
X115857143Y97088039D02*
X115857143Y97468991D01*
X115857143Y97468991D02*
X115904762Y97564229D01*
X115904762Y97564229D02*
X116000000Y97611848D01*
X116000000Y97611848D02*
X116190476Y97611848D01*
X116190476Y97611848D02*
X116285714Y97564229D01*
X116285714Y97564229D02*
X116333333Y97468991D01*
X116333333Y97468991D02*
X116333333Y97373753D01*
X116333333Y97373753D02*
X115857143Y97278515D01*
X117190476Y97611848D02*
X117190476Y96945181D01*
X116761905Y97611848D02*
X116761905Y97088039D01*
X116761905Y97088039D02*
X116809524Y96992800D01*
X116809524Y96992800D02*
X116904762Y96945181D01*
X116904762Y96945181D02*
X117047619Y96945181D01*
X117047619Y96945181D02*
X117142857Y96992800D01*
X117142857Y96992800D02*
X117190476Y97040420D01*
X117666667Y96945181D02*
X117666667Y97611848D01*
X117666667Y97421372D02*
X117714286Y97516610D01*
X117714286Y97516610D02*
X117761905Y97564229D01*
X117761905Y97564229D02*
X117857143Y97611848D01*
X117857143Y97611848D02*
X117952381Y97611848D01*
X118238096Y97849943D02*
X118285715Y97897562D01*
X118285715Y97897562D02*
X118380953Y97945181D01*
X118380953Y97945181D02*
X118619048Y97945181D01*
X118619048Y97945181D02*
X118714286Y97897562D01*
X118714286Y97897562D02*
X118761905Y97849943D01*
X118761905Y97849943D02*
X118809524Y97754705D01*
X118809524Y97754705D02*
X118809524Y97659467D01*
X118809524Y97659467D02*
X118761905Y97516610D01*
X118761905Y97516610D02*
X118190477Y96945181D01*
X118190477Y96945181D02*
X118809524Y96945181D01*
X111554819Y34880953D02*
X111554819Y34404763D01*
X111554819Y34404763D02*
X110554819Y34404763D01*
X111031009Y35214287D02*
X111031009Y35547620D01*
X111554819Y35690477D02*
X111554819Y35214287D01*
X111554819Y35214287D02*
X110554819Y35214287D01*
X110554819Y35214287D02*
X110554819Y35690477D01*
X111554819Y36119049D02*
X110554819Y36119049D01*
X110554819Y36119049D02*
X110554819Y36357144D01*
X110554819Y36357144D02*
X110602438Y36500001D01*
X110602438Y36500001D02*
X110697676Y36595239D01*
X110697676Y36595239D02*
X110792914Y36642858D01*
X110792914Y36642858D02*
X110983390Y36690477D01*
X110983390Y36690477D02*
X111126247Y36690477D01*
X111126247Y36690477D02*
X111316723Y36642858D01*
X111316723Y36642858D02*
X111411961Y36595239D01*
X111411961Y36595239D02*
X111507200Y36500001D01*
X111507200Y36500001D02*
X111554819Y36357144D01*
X111554819Y36357144D02*
X111554819Y36119049D01*
X111554819Y37642858D02*
X111554819Y37071430D01*
X111554819Y37357144D02*
X110554819Y37357144D01*
X110554819Y37357144D02*
X110697676Y37261906D01*
X110697676Y37261906D02*
X110792914Y37166668D01*
X110792914Y37166668D02*
X110840533Y37071430D01*
X112324819Y25777143D02*
X111848628Y25443810D01*
X112324819Y25205715D02*
X111324819Y25205715D01*
X111324819Y25205715D02*
X111324819Y25586667D01*
X111324819Y25586667D02*
X111372438Y25681905D01*
X111372438Y25681905D02*
X111420057Y25729524D01*
X111420057Y25729524D02*
X111515295Y25777143D01*
X111515295Y25777143D02*
X111658152Y25777143D01*
X111658152Y25777143D02*
X111753390Y25729524D01*
X111753390Y25729524D02*
X111801009Y25681905D01*
X111801009Y25681905D02*
X111848628Y25586667D01*
X111848628Y25586667D02*
X111848628Y25205715D01*
X112324819Y26729524D02*
X112324819Y26158096D01*
X112324819Y26443810D02*
X111324819Y26443810D01*
X111324819Y26443810D02*
X111467676Y26348572D01*
X111467676Y26348572D02*
X111562914Y26253334D01*
X111562914Y26253334D02*
X111610533Y26158096D01*
X111324819Y27348572D02*
X111324819Y27443810D01*
X111324819Y27443810D02*
X111372438Y27539048D01*
X111372438Y27539048D02*
X111420057Y27586667D01*
X111420057Y27586667D02*
X111515295Y27634286D01*
X111515295Y27634286D02*
X111705771Y27681905D01*
X111705771Y27681905D02*
X111943866Y27681905D01*
X111943866Y27681905D02*
X112134342Y27634286D01*
X112134342Y27634286D02*
X112229580Y27586667D01*
X112229580Y27586667D02*
X112277200Y27539048D01*
X112277200Y27539048D02*
X112324819Y27443810D01*
X112324819Y27443810D02*
X112324819Y27348572D01*
X112324819Y27348572D02*
X112277200Y27253334D01*
X112277200Y27253334D02*
X112229580Y27205715D01*
X112229580Y27205715D02*
X112134342Y27158096D01*
X112134342Y27158096D02*
X111943866Y27110477D01*
X111943866Y27110477D02*
X111705771Y27110477D01*
X111705771Y27110477D02*
X111515295Y27158096D01*
X111515295Y27158096D02*
X111420057Y27205715D01*
X111420057Y27205715D02*
X111372438Y27253334D01*
X111372438Y27253334D02*
X111324819Y27348572D01*
X19843809Y21680181D02*
X19510476Y22156372D01*
X19272381Y21680181D02*
X19272381Y22680181D01*
X19272381Y22680181D02*
X19653333Y22680181D01*
X19653333Y22680181D02*
X19748571Y22632562D01*
X19748571Y22632562D02*
X19796190Y22584943D01*
X19796190Y22584943D02*
X19843809Y22489705D01*
X19843809Y22489705D02*
X19843809Y22346848D01*
X19843809Y22346848D02*
X19796190Y22251610D01*
X19796190Y22251610D02*
X19748571Y22203991D01*
X19748571Y22203991D02*
X19653333Y22156372D01*
X19653333Y22156372D02*
X19272381Y22156372D01*
X20700952Y21680181D02*
X20700952Y22203991D01*
X20700952Y22203991D02*
X20653333Y22299229D01*
X20653333Y22299229D02*
X20558095Y22346848D01*
X20558095Y22346848D02*
X20367619Y22346848D01*
X20367619Y22346848D02*
X20272381Y22299229D01*
X20700952Y21727800D02*
X20605714Y21680181D01*
X20605714Y21680181D02*
X20367619Y21680181D01*
X20367619Y21680181D02*
X20272381Y21727800D01*
X20272381Y21727800D02*
X20224762Y21823039D01*
X20224762Y21823039D02*
X20224762Y21918277D01*
X20224762Y21918277D02*
X20272381Y22013515D01*
X20272381Y22013515D02*
X20367619Y22061134D01*
X20367619Y22061134D02*
X20605714Y22061134D01*
X20605714Y22061134D02*
X20700952Y22108753D01*
X21129524Y21727800D02*
X21224762Y21680181D01*
X21224762Y21680181D02*
X21415238Y21680181D01*
X21415238Y21680181D02*
X21510476Y21727800D01*
X21510476Y21727800D02*
X21558095Y21823039D01*
X21558095Y21823039D02*
X21558095Y21870658D01*
X21558095Y21870658D02*
X21510476Y21965896D01*
X21510476Y21965896D02*
X21415238Y22013515D01*
X21415238Y22013515D02*
X21272381Y22013515D01*
X21272381Y22013515D02*
X21177143Y22061134D01*
X21177143Y22061134D02*
X21129524Y22156372D01*
X21129524Y22156372D02*
X21129524Y22203991D01*
X21129524Y22203991D02*
X21177143Y22299229D01*
X21177143Y22299229D02*
X21272381Y22346848D01*
X21272381Y22346848D02*
X21415238Y22346848D01*
X21415238Y22346848D02*
X21510476Y22299229D01*
X21986667Y22346848D02*
X21986667Y21346848D01*
X21986667Y22299229D02*
X22081905Y22346848D01*
X22081905Y22346848D02*
X22272381Y22346848D01*
X22272381Y22346848D02*
X22367619Y22299229D01*
X22367619Y22299229D02*
X22415238Y22251610D01*
X22415238Y22251610D02*
X22462857Y22156372D01*
X22462857Y22156372D02*
X22462857Y21870658D01*
X22462857Y21870658D02*
X22415238Y21775420D01*
X22415238Y21775420D02*
X22367619Y21727800D01*
X22367619Y21727800D02*
X22272381Y21680181D01*
X22272381Y21680181D02*
X22081905Y21680181D01*
X22081905Y21680181D02*
X21986667Y21727800D01*
X23415238Y21680181D02*
X22843810Y21680181D01*
X23129524Y21680181D02*
X23129524Y22680181D01*
X23129524Y22680181D02*
X23034286Y22537324D01*
X23034286Y22537324D02*
X22939048Y22442086D01*
X22939048Y22442086D02*
X22843810Y22394467D01*
X96413333Y96675181D02*
X96080000Y97151372D01*
X95841905Y96675181D02*
X95841905Y97675181D01*
X95841905Y97675181D02*
X96222857Y97675181D01*
X96222857Y97675181D02*
X96318095Y97627562D01*
X96318095Y97627562D02*
X96365714Y97579943D01*
X96365714Y97579943D02*
X96413333Y97484705D01*
X96413333Y97484705D02*
X96413333Y97341848D01*
X96413333Y97341848D02*
X96365714Y97246610D01*
X96365714Y97246610D02*
X96318095Y97198991D01*
X96318095Y97198991D02*
X96222857Y97151372D01*
X96222857Y97151372D02*
X95841905Y97151372D01*
X96794286Y97579943D02*
X96841905Y97627562D01*
X96841905Y97627562D02*
X96937143Y97675181D01*
X96937143Y97675181D02*
X97175238Y97675181D01*
X97175238Y97675181D02*
X97270476Y97627562D01*
X97270476Y97627562D02*
X97318095Y97579943D01*
X97318095Y97579943D02*
X97365714Y97484705D01*
X97365714Y97484705D02*
X97365714Y97389467D01*
X97365714Y97389467D02*
X97318095Y97246610D01*
X97318095Y97246610D02*
X96746667Y96675181D01*
X96746667Y96675181D02*
X97365714Y96675181D01*
X113666666Y105992800D02*
X113571428Y105945181D01*
X113571428Y105945181D02*
X113380952Y105945181D01*
X113380952Y105945181D02*
X113285714Y105992800D01*
X113285714Y105992800D02*
X113238095Y106040420D01*
X113238095Y106040420D02*
X113190476Y106135658D01*
X113190476Y106135658D02*
X113190476Y106421372D01*
X113190476Y106421372D02*
X113238095Y106516610D01*
X113238095Y106516610D02*
X113285714Y106564229D01*
X113285714Y106564229D02*
X113380952Y106611848D01*
X113380952Y106611848D02*
X113571428Y106611848D01*
X113571428Y106611848D02*
X113666666Y106564229D01*
X114238095Y105945181D02*
X114142857Y105992800D01*
X114142857Y105992800D02*
X114095238Y106040420D01*
X114095238Y106040420D02*
X114047619Y106135658D01*
X114047619Y106135658D02*
X114047619Y106421372D01*
X114047619Y106421372D02*
X114095238Y106516610D01*
X114095238Y106516610D02*
X114142857Y106564229D01*
X114142857Y106564229D02*
X114238095Y106611848D01*
X114238095Y106611848D02*
X114380952Y106611848D01*
X114380952Y106611848D02*
X114476190Y106564229D01*
X114476190Y106564229D02*
X114523809Y106516610D01*
X114523809Y106516610D02*
X114571428Y106421372D01*
X114571428Y106421372D02*
X114571428Y106135658D01*
X114571428Y106135658D02*
X114523809Y106040420D01*
X114523809Y106040420D02*
X114476190Y105992800D01*
X114476190Y105992800D02*
X114380952Y105945181D01*
X114380952Y105945181D02*
X114238095Y105945181D01*
X115428571Y105945181D02*
X115428571Y106945181D01*
X115428571Y105992800D02*
X115333333Y105945181D01*
X115333333Y105945181D02*
X115142857Y105945181D01*
X115142857Y105945181D02*
X115047619Y105992800D01*
X115047619Y105992800D02*
X115000000Y106040420D01*
X115000000Y106040420D02*
X114952381Y106135658D01*
X114952381Y106135658D02*
X114952381Y106421372D01*
X114952381Y106421372D02*
X115000000Y106516610D01*
X115000000Y106516610D02*
X115047619Y106564229D01*
X115047619Y106564229D02*
X115142857Y106611848D01*
X115142857Y106611848D02*
X115333333Y106611848D01*
X115333333Y106611848D02*
X115428571Y106564229D01*
X116285714Y105992800D02*
X116190476Y105945181D01*
X116190476Y105945181D02*
X116000000Y105945181D01*
X116000000Y105945181D02*
X115904762Y105992800D01*
X115904762Y105992800D02*
X115857143Y106088039D01*
X115857143Y106088039D02*
X115857143Y106468991D01*
X115857143Y106468991D02*
X115904762Y106564229D01*
X115904762Y106564229D02*
X116000000Y106611848D01*
X116000000Y106611848D02*
X116190476Y106611848D01*
X116190476Y106611848D02*
X116285714Y106564229D01*
X116285714Y106564229D02*
X116333333Y106468991D01*
X116333333Y106468991D02*
X116333333Y106373753D01*
X116333333Y106373753D02*
X115857143Y106278515D01*
X117190476Y106611848D02*
X117190476Y105945181D01*
X116761905Y106611848D02*
X116761905Y106088039D01*
X116761905Y106088039D02*
X116809524Y105992800D01*
X116809524Y105992800D02*
X116904762Y105945181D01*
X116904762Y105945181D02*
X117047619Y105945181D01*
X117047619Y105945181D02*
X117142857Y105992800D01*
X117142857Y105992800D02*
X117190476Y106040420D01*
X117666667Y105945181D02*
X117666667Y106611848D01*
X117666667Y106421372D02*
X117714286Y106516610D01*
X117714286Y106516610D02*
X117761905Y106564229D01*
X117761905Y106564229D02*
X117857143Y106611848D01*
X117857143Y106611848D02*
X117952381Y106611848D01*
X118809524Y105945181D02*
X118238096Y105945181D01*
X118523810Y105945181D02*
X118523810Y106945181D01*
X118523810Y106945181D02*
X118428572Y106802324D01*
X118428572Y106802324D02*
X118333334Y106707086D01*
X118333334Y106707086D02*
X118238096Y106659467D01*
X15666666Y71900181D02*
X15666666Y71185896D01*
X15666666Y71185896D02*
X15619047Y71043039D01*
X15619047Y71043039D02*
X15523809Y70947800D01*
X15523809Y70947800D02*
X15380952Y70900181D01*
X15380952Y70900181D02*
X15285714Y70900181D01*
X16095238Y71804943D02*
X16142857Y71852562D01*
X16142857Y71852562D02*
X16238095Y71900181D01*
X16238095Y71900181D02*
X16476190Y71900181D01*
X16476190Y71900181D02*
X16571428Y71852562D01*
X16571428Y71852562D02*
X16619047Y71804943D01*
X16619047Y71804943D02*
X16666666Y71709705D01*
X16666666Y71709705D02*
X16666666Y71614467D01*
X16666666Y71614467D02*
X16619047Y71471610D01*
X16619047Y71471610D02*
X16047619Y70900181D01*
X16047619Y70900181D02*
X16666666Y70900181D01*
X93642856Y60968991D02*
X93785713Y60921372D01*
X93785713Y60921372D02*
X93833332Y60873753D01*
X93833332Y60873753D02*
X93880951Y60778515D01*
X93880951Y60778515D02*
X93880951Y60635658D01*
X93880951Y60635658D02*
X93833332Y60540420D01*
X93833332Y60540420D02*
X93785713Y60492800D01*
X93785713Y60492800D02*
X93690475Y60445181D01*
X93690475Y60445181D02*
X93309523Y60445181D01*
X93309523Y60445181D02*
X93309523Y61445181D01*
X93309523Y61445181D02*
X93642856Y61445181D01*
X93642856Y61445181D02*
X93738094Y61397562D01*
X93738094Y61397562D02*
X93785713Y61349943D01*
X93785713Y61349943D02*
X93833332Y61254705D01*
X93833332Y61254705D02*
X93833332Y61159467D01*
X93833332Y61159467D02*
X93785713Y61064229D01*
X93785713Y61064229D02*
X93738094Y61016610D01*
X93738094Y61016610D02*
X93642856Y60968991D01*
X93642856Y60968991D02*
X93309523Y60968991D01*
X94738094Y61111848D02*
X94738094Y60445181D01*
X94309523Y61111848D02*
X94309523Y60588039D01*
X94309523Y60588039D02*
X94357142Y60492800D01*
X94357142Y60492800D02*
X94452380Y60445181D01*
X94452380Y60445181D02*
X94595237Y60445181D01*
X94595237Y60445181D02*
X94690475Y60492800D01*
X94690475Y60492800D02*
X94738094Y60540420D01*
X95166666Y60492800D02*
X95261904Y60445181D01*
X95261904Y60445181D02*
X95452380Y60445181D01*
X95452380Y60445181D02*
X95547618Y60492800D01*
X95547618Y60492800D02*
X95595237Y60588039D01*
X95595237Y60588039D02*
X95595237Y60635658D01*
X95595237Y60635658D02*
X95547618Y60730896D01*
X95547618Y60730896D02*
X95452380Y60778515D01*
X95452380Y60778515D02*
X95309523Y60778515D01*
X95309523Y60778515D02*
X95214285Y60826134D01*
X95214285Y60826134D02*
X95166666Y60921372D01*
X95166666Y60921372D02*
X95166666Y60968991D01*
X95166666Y60968991D02*
X95214285Y61064229D01*
X95214285Y61064229D02*
X95309523Y61111848D01*
X95309523Y61111848D02*
X95452380Y61111848D01*
X95452380Y61111848D02*
X95547618Y61064229D01*
X96023809Y60445181D02*
X96023809Y61111848D01*
X96023809Y61016610D02*
X96071428Y61064229D01*
X96071428Y61064229D02*
X96166666Y61111848D01*
X96166666Y61111848D02*
X96309523Y61111848D01*
X96309523Y61111848D02*
X96404761Y61064229D01*
X96404761Y61064229D02*
X96452380Y60968991D01*
X96452380Y60968991D02*
X96452380Y60445181D01*
X96452380Y60968991D02*
X96499999Y61064229D01*
X96499999Y61064229D02*
X96595237Y61111848D01*
X96595237Y61111848D02*
X96738094Y61111848D01*
X96738094Y61111848D02*
X96833333Y61064229D01*
X96833333Y61064229D02*
X96880952Y60968991D01*
X96880952Y60968991D02*
X96880952Y60445181D01*
X97499999Y60445181D02*
X97404761Y60492800D01*
X97404761Y60492800D02*
X97357142Y60540420D01*
X97357142Y60540420D02*
X97309523Y60635658D01*
X97309523Y60635658D02*
X97309523Y60921372D01*
X97309523Y60921372D02*
X97357142Y61016610D01*
X97357142Y61016610D02*
X97404761Y61064229D01*
X97404761Y61064229D02*
X97499999Y61111848D01*
X97499999Y61111848D02*
X97642856Y61111848D01*
X97642856Y61111848D02*
X97738094Y61064229D01*
X97738094Y61064229D02*
X97785713Y61016610D01*
X97785713Y61016610D02*
X97833332Y60921372D01*
X97833332Y60921372D02*
X97833332Y60635658D01*
X97833332Y60635658D02*
X97785713Y60540420D01*
X97785713Y60540420D02*
X97738094Y60492800D01*
X97738094Y60492800D02*
X97642856Y60445181D01*
X97642856Y60445181D02*
X97499999Y60445181D01*
X98119047Y61111848D02*
X98499999Y61111848D01*
X98261904Y61445181D02*
X98261904Y60588039D01*
X98261904Y60588039D02*
X98309523Y60492800D01*
X98309523Y60492800D02*
X98404761Y60445181D01*
X98404761Y60445181D02*
X98499999Y60445181D01*
X99214285Y60492800D02*
X99119047Y60445181D01*
X99119047Y60445181D02*
X98928571Y60445181D01*
X98928571Y60445181D02*
X98833333Y60492800D01*
X98833333Y60492800D02*
X98785714Y60588039D01*
X98785714Y60588039D02*
X98785714Y60968991D01*
X98785714Y60968991D02*
X98833333Y61064229D01*
X98833333Y61064229D02*
X98928571Y61111848D01*
X98928571Y61111848D02*
X99119047Y61111848D01*
X99119047Y61111848D02*
X99214285Y61064229D01*
X99214285Y61064229D02*
X99261904Y60968991D01*
X99261904Y60968991D02*
X99261904Y60873753D01*
X99261904Y60873753D02*
X98785714Y60778515D01*
X100119047Y61111848D02*
X100119047Y60445181D01*
X99690476Y61111848D02*
X99690476Y60588039D01*
X99690476Y60588039D02*
X99738095Y60492800D01*
X99738095Y60492800D02*
X99833333Y60445181D01*
X99833333Y60445181D02*
X99976190Y60445181D01*
X99976190Y60445181D02*
X100071428Y60492800D01*
X100071428Y60492800D02*
X100119047Y60540420D01*
X100595238Y60445181D02*
X100595238Y61111848D01*
X100595238Y60921372D02*
X100642857Y61016610D01*
X100642857Y61016610D02*
X100690476Y61064229D01*
X100690476Y61064229D02*
X100785714Y61111848D01*
X100785714Y61111848D02*
X100880952Y61111848D01*
X101738095Y60445181D02*
X101166667Y60445181D01*
X101452381Y60445181D02*
X101452381Y61445181D01*
X101452381Y61445181D02*
X101357143Y61302324D01*
X101357143Y61302324D02*
X101261905Y61207086D01*
X101261905Y61207086D02*
X101166667Y61159467D01*
X113666666Y83992800D02*
X113571428Y83945181D01*
X113571428Y83945181D02*
X113380952Y83945181D01*
X113380952Y83945181D02*
X113285714Y83992800D01*
X113285714Y83992800D02*
X113238095Y84040420D01*
X113238095Y84040420D02*
X113190476Y84135658D01*
X113190476Y84135658D02*
X113190476Y84421372D01*
X113190476Y84421372D02*
X113238095Y84516610D01*
X113238095Y84516610D02*
X113285714Y84564229D01*
X113285714Y84564229D02*
X113380952Y84611848D01*
X113380952Y84611848D02*
X113571428Y84611848D01*
X113571428Y84611848D02*
X113666666Y84564229D01*
X114238095Y83945181D02*
X114142857Y83992800D01*
X114142857Y83992800D02*
X114095238Y84040420D01*
X114095238Y84040420D02*
X114047619Y84135658D01*
X114047619Y84135658D02*
X114047619Y84421372D01*
X114047619Y84421372D02*
X114095238Y84516610D01*
X114095238Y84516610D02*
X114142857Y84564229D01*
X114142857Y84564229D02*
X114238095Y84611848D01*
X114238095Y84611848D02*
X114380952Y84611848D01*
X114380952Y84611848D02*
X114476190Y84564229D01*
X114476190Y84564229D02*
X114523809Y84516610D01*
X114523809Y84516610D02*
X114571428Y84421372D01*
X114571428Y84421372D02*
X114571428Y84135658D01*
X114571428Y84135658D02*
X114523809Y84040420D01*
X114523809Y84040420D02*
X114476190Y83992800D01*
X114476190Y83992800D02*
X114380952Y83945181D01*
X114380952Y83945181D02*
X114238095Y83945181D01*
X115428571Y83945181D02*
X115428571Y84945181D01*
X115428571Y83992800D02*
X115333333Y83945181D01*
X115333333Y83945181D02*
X115142857Y83945181D01*
X115142857Y83945181D02*
X115047619Y83992800D01*
X115047619Y83992800D02*
X115000000Y84040420D01*
X115000000Y84040420D02*
X114952381Y84135658D01*
X114952381Y84135658D02*
X114952381Y84421372D01*
X114952381Y84421372D02*
X115000000Y84516610D01*
X115000000Y84516610D02*
X115047619Y84564229D01*
X115047619Y84564229D02*
X115142857Y84611848D01*
X115142857Y84611848D02*
X115333333Y84611848D01*
X115333333Y84611848D02*
X115428571Y84564229D01*
X116285714Y83992800D02*
X116190476Y83945181D01*
X116190476Y83945181D02*
X116000000Y83945181D01*
X116000000Y83945181D02*
X115904762Y83992800D01*
X115904762Y83992800D02*
X115857143Y84088039D01*
X115857143Y84088039D02*
X115857143Y84468991D01*
X115857143Y84468991D02*
X115904762Y84564229D01*
X115904762Y84564229D02*
X116000000Y84611848D01*
X116000000Y84611848D02*
X116190476Y84611848D01*
X116190476Y84611848D02*
X116285714Y84564229D01*
X116285714Y84564229D02*
X116333333Y84468991D01*
X116333333Y84468991D02*
X116333333Y84373753D01*
X116333333Y84373753D02*
X115857143Y84278515D01*
X117190476Y84611848D02*
X117190476Y83945181D01*
X116761905Y84611848D02*
X116761905Y84088039D01*
X116761905Y84088039D02*
X116809524Y83992800D01*
X116809524Y83992800D02*
X116904762Y83945181D01*
X116904762Y83945181D02*
X117047619Y83945181D01*
X117047619Y83945181D02*
X117142857Y83992800D01*
X117142857Y83992800D02*
X117190476Y84040420D01*
X117666667Y83945181D02*
X117666667Y84611848D01*
X117666667Y84421372D02*
X117714286Y84516610D01*
X117714286Y84516610D02*
X117761905Y84564229D01*
X117761905Y84564229D02*
X117857143Y84611848D01*
X117857143Y84611848D02*
X117952381Y84611848D01*
X118714286Y84611848D02*
X118714286Y83945181D01*
X118476191Y84992800D02*
X118238096Y84278515D01*
X118238096Y84278515D02*
X118857143Y84278515D01*
X99333333Y75675181D02*
X99000000Y76151372D01*
X98761905Y75675181D02*
X98761905Y76675181D01*
X98761905Y76675181D02*
X99142857Y76675181D01*
X99142857Y76675181D02*
X99238095Y76627562D01*
X99238095Y76627562D02*
X99285714Y76579943D01*
X99285714Y76579943D02*
X99333333Y76484705D01*
X99333333Y76484705D02*
X99333333Y76341848D01*
X99333333Y76341848D02*
X99285714Y76246610D01*
X99285714Y76246610D02*
X99238095Y76198991D01*
X99238095Y76198991D02*
X99142857Y76151372D01*
X99142857Y76151372D02*
X98761905Y76151372D01*
X99809524Y75675181D02*
X100000000Y75675181D01*
X100000000Y75675181D02*
X100095238Y75722800D01*
X100095238Y75722800D02*
X100142857Y75770420D01*
X100142857Y75770420D02*
X100238095Y75913277D01*
X100238095Y75913277D02*
X100285714Y76103753D01*
X100285714Y76103753D02*
X100285714Y76484705D01*
X100285714Y76484705D02*
X100238095Y76579943D01*
X100238095Y76579943D02*
X100190476Y76627562D01*
X100190476Y76627562D02*
X100095238Y76675181D01*
X100095238Y76675181D02*
X99904762Y76675181D01*
X99904762Y76675181D02*
X99809524Y76627562D01*
X99809524Y76627562D02*
X99761905Y76579943D01*
X99761905Y76579943D02*
X99714286Y76484705D01*
X99714286Y76484705D02*
X99714286Y76246610D01*
X99714286Y76246610D02*
X99761905Y76151372D01*
X99761905Y76151372D02*
X99809524Y76103753D01*
X99809524Y76103753D02*
X99904762Y76056134D01*
X99904762Y76056134D02*
X100095238Y76056134D01*
X100095238Y76056134D02*
X100190476Y76103753D01*
X100190476Y76103753D02*
X100238095Y76151372D01*
X100238095Y76151372D02*
X100285714Y76246610D01*
X96833333Y86175181D02*
X96500000Y86651372D01*
X96261905Y86175181D02*
X96261905Y87175181D01*
X96261905Y87175181D02*
X96642857Y87175181D01*
X96642857Y87175181D02*
X96738095Y87127562D01*
X96738095Y87127562D02*
X96785714Y87079943D01*
X96785714Y87079943D02*
X96833333Y86984705D01*
X96833333Y86984705D02*
X96833333Y86841848D01*
X96833333Y86841848D02*
X96785714Y86746610D01*
X96785714Y86746610D02*
X96738095Y86698991D01*
X96738095Y86698991D02*
X96642857Y86651372D01*
X96642857Y86651372D02*
X96261905Y86651372D01*
X97738095Y87175181D02*
X97261905Y87175181D01*
X97261905Y87175181D02*
X97214286Y86698991D01*
X97214286Y86698991D02*
X97261905Y86746610D01*
X97261905Y86746610D02*
X97357143Y86794229D01*
X97357143Y86794229D02*
X97595238Y86794229D01*
X97595238Y86794229D02*
X97690476Y86746610D01*
X97690476Y86746610D02*
X97738095Y86698991D01*
X97738095Y86698991D02*
X97785714Y86603753D01*
X97785714Y86603753D02*
X97785714Y86365658D01*
X97785714Y86365658D02*
X97738095Y86270420D01*
X97738095Y86270420D02*
X97690476Y86222800D01*
X97690476Y86222800D02*
X97595238Y86175181D01*
X97595238Y86175181D02*
X97357143Y86175181D01*
X97357143Y86175181D02*
X97261905Y86222800D01*
X97261905Y86222800D02*
X97214286Y86270420D01*
X99253333Y80675181D02*
X98920000Y81151372D01*
X98681905Y80675181D02*
X98681905Y81675181D01*
X98681905Y81675181D02*
X99062857Y81675181D01*
X99062857Y81675181D02*
X99158095Y81627562D01*
X99158095Y81627562D02*
X99205714Y81579943D01*
X99205714Y81579943D02*
X99253333Y81484705D01*
X99253333Y81484705D02*
X99253333Y81341848D01*
X99253333Y81341848D02*
X99205714Y81246610D01*
X99205714Y81246610D02*
X99158095Y81198991D01*
X99158095Y81198991D02*
X99062857Y81151372D01*
X99062857Y81151372D02*
X98681905Y81151372D01*
X99824762Y81246610D02*
X99729524Y81294229D01*
X99729524Y81294229D02*
X99681905Y81341848D01*
X99681905Y81341848D02*
X99634286Y81437086D01*
X99634286Y81437086D02*
X99634286Y81484705D01*
X99634286Y81484705D02*
X99681905Y81579943D01*
X99681905Y81579943D02*
X99729524Y81627562D01*
X99729524Y81627562D02*
X99824762Y81675181D01*
X99824762Y81675181D02*
X100015238Y81675181D01*
X100015238Y81675181D02*
X100110476Y81627562D01*
X100110476Y81627562D02*
X100158095Y81579943D01*
X100158095Y81579943D02*
X100205714Y81484705D01*
X100205714Y81484705D02*
X100205714Y81437086D01*
X100205714Y81437086D02*
X100158095Y81341848D01*
X100158095Y81341848D02*
X100110476Y81294229D01*
X100110476Y81294229D02*
X100015238Y81246610D01*
X100015238Y81246610D02*
X99824762Y81246610D01*
X99824762Y81246610D02*
X99729524Y81198991D01*
X99729524Y81198991D02*
X99681905Y81151372D01*
X99681905Y81151372D02*
X99634286Y81056134D01*
X99634286Y81056134D02*
X99634286Y80865658D01*
X99634286Y80865658D02*
X99681905Y80770420D01*
X99681905Y80770420D02*
X99729524Y80722800D01*
X99729524Y80722800D02*
X99824762Y80675181D01*
X99824762Y80675181D02*
X100015238Y80675181D01*
X100015238Y80675181D02*
X100110476Y80722800D01*
X100110476Y80722800D02*
X100158095Y80770420D01*
X100158095Y80770420D02*
X100205714Y80865658D01*
X100205714Y80865658D02*
X100205714Y81056134D01*
X100205714Y81056134D02*
X100158095Y81151372D01*
X100158095Y81151372D02*
X100110476Y81198991D01*
X100110476Y81198991D02*
X100015238Y81246610D01*
X128738095Y114345181D02*
X128738095Y115345181D01*
X128738095Y114868991D02*
X129309523Y114868991D01*
X129309523Y114345181D02*
X129309523Y115345181D01*
X129738095Y115249943D02*
X129785714Y115297562D01*
X129785714Y115297562D02*
X129880952Y115345181D01*
X129880952Y115345181D02*
X130119047Y115345181D01*
X130119047Y115345181D02*
X130214285Y115297562D01*
X130214285Y115297562D02*
X130261904Y115249943D01*
X130261904Y115249943D02*
X130309523Y115154705D01*
X130309523Y115154705D02*
X130309523Y115059467D01*
X130309523Y115059467D02*
X130261904Y114916610D01*
X130261904Y114916610D02*
X129690476Y114345181D01*
X129690476Y114345181D02*
X130309523Y114345181D01*
X95554819Y33238096D02*
X96269104Y33238096D01*
X96269104Y33238096D02*
X96411961Y33190477D01*
X96411961Y33190477D02*
X96507200Y33095239D01*
X96507200Y33095239D02*
X96554819Y32952382D01*
X96554819Y32952382D02*
X96554819Y32857144D01*
X96269104Y33666668D02*
X96269104Y34142858D01*
X96554819Y33571430D02*
X95554819Y33904763D01*
X95554819Y33904763D02*
X96554819Y34238096D01*
X96459580Y35142858D02*
X96507200Y35095239D01*
X96507200Y35095239D02*
X96554819Y34952382D01*
X96554819Y34952382D02*
X96554819Y34857144D01*
X96554819Y34857144D02*
X96507200Y34714287D01*
X96507200Y34714287D02*
X96411961Y34619049D01*
X96411961Y34619049D02*
X96316723Y34571430D01*
X96316723Y34571430D02*
X96126247Y34523811D01*
X96126247Y34523811D02*
X95983390Y34523811D01*
X95983390Y34523811D02*
X95792914Y34571430D01*
X95792914Y34571430D02*
X95697676Y34619049D01*
X95697676Y34619049D02*
X95602438Y34714287D01*
X95602438Y34714287D02*
X95554819Y34857144D01*
X95554819Y34857144D02*
X95554819Y34952382D01*
X95554819Y34952382D02*
X95602438Y35095239D01*
X95602438Y35095239D02*
X95650057Y35142858D01*
X96554819Y35571430D02*
X95554819Y35571430D01*
X96554819Y36142858D02*
X95983390Y35714287D01*
X95554819Y36142858D02*
X96126247Y35571430D01*
X96554819Y37095239D02*
X96554819Y36523811D01*
X96554819Y36809525D02*
X95554819Y36809525D01*
X95554819Y36809525D02*
X95697676Y36714287D01*
X95697676Y36714287D02*
X95792914Y36619049D01*
X95792914Y36619049D02*
X95840533Y36523811D01*
X4238095Y7845181D02*
X4238095Y8845181D01*
X4238095Y8368991D02*
X4809523Y8368991D01*
X4809523Y7845181D02*
X4809523Y8845181D01*
X5714285Y8511848D02*
X5714285Y7845181D01*
X5476190Y8892800D02*
X5238095Y8178515D01*
X5238095Y8178515D02*
X5857142Y8178515D01*
X5238095Y114345181D02*
X5238095Y115345181D01*
X5238095Y114868991D02*
X5809523Y114868991D01*
X5809523Y114345181D02*
X5809523Y115345181D01*
X6809523Y114345181D02*
X6238095Y114345181D01*
X6523809Y114345181D02*
X6523809Y115345181D01*
X6523809Y115345181D02*
X6428571Y115202324D01*
X6428571Y115202324D02*
X6333333Y115107086D01*
X6333333Y115107086D02*
X6238095Y115059467D01*
X94642856Y51468991D02*
X94785713Y51421372D01*
X94785713Y51421372D02*
X94833332Y51373753D01*
X94833332Y51373753D02*
X94880951Y51278515D01*
X94880951Y51278515D02*
X94880951Y51135658D01*
X94880951Y51135658D02*
X94833332Y51040420D01*
X94833332Y51040420D02*
X94785713Y50992800D01*
X94785713Y50992800D02*
X94690475Y50945181D01*
X94690475Y50945181D02*
X94309523Y50945181D01*
X94309523Y50945181D02*
X94309523Y51945181D01*
X94309523Y51945181D02*
X94642856Y51945181D01*
X94642856Y51945181D02*
X94738094Y51897562D01*
X94738094Y51897562D02*
X94785713Y51849943D01*
X94785713Y51849943D02*
X94833332Y51754705D01*
X94833332Y51754705D02*
X94833332Y51659467D01*
X94833332Y51659467D02*
X94785713Y51564229D01*
X94785713Y51564229D02*
X94738094Y51516610D01*
X94738094Y51516610D02*
X94642856Y51468991D01*
X94642856Y51468991D02*
X94309523Y51468991D01*
X95738094Y51611848D02*
X95738094Y50945181D01*
X95309523Y51611848D02*
X95309523Y51088039D01*
X95309523Y51088039D02*
X95357142Y50992800D01*
X95357142Y50992800D02*
X95452380Y50945181D01*
X95452380Y50945181D02*
X95595237Y50945181D01*
X95595237Y50945181D02*
X95690475Y50992800D01*
X95690475Y50992800D02*
X95738094Y51040420D01*
X96166666Y50992800D02*
X96261904Y50945181D01*
X96261904Y50945181D02*
X96452380Y50945181D01*
X96452380Y50945181D02*
X96547618Y50992800D01*
X96547618Y50992800D02*
X96595237Y51088039D01*
X96595237Y51088039D02*
X96595237Y51135658D01*
X96595237Y51135658D02*
X96547618Y51230896D01*
X96547618Y51230896D02*
X96452380Y51278515D01*
X96452380Y51278515D02*
X96309523Y51278515D01*
X96309523Y51278515D02*
X96214285Y51326134D01*
X96214285Y51326134D02*
X96166666Y51421372D01*
X96166666Y51421372D02*
X96166666Y51468991D01*
X96166666Y51468991D02*
X96214285Y51564229D01*
X96214285Y51564229D02*
X96309523Y51611848D01*
X96309523Y51611848D02*
X96452380Y51611848D01*
X96452380Y51611848D02*
X96547618Y51564229D01*
X97023809Y50945181D02*
X97023809Y51611848D01*
X97023809Y51516610D02*
X97071428Y51564229D01*
X97071428Y51564229D02*
X97166666Y51611848D01*
X97166666Y51611848D02*
X97309523Y51611848D01*
X97309523Y51611848D02*
X97404761Y51564229D01*
X97404761Y51564229D02*
X97452380Y51468991D01*
X97452380Y51468991D02*
X97452380Y50945181D01*
X97452380Y51468991D02*
X97499999Y51564229D01*
X97499999Y51564229D02*
X97595237Y51611848D01*
X97595237Y51611848D02*
X97738094Y51611848D01*
X97738094Y51611848D02*
X97833333Y51564229D01*
X97833333Y51564229D02*
X97880952Y51468991D01*
X97880952Y51468991D02*
X97880952Y50945181D01*
X98499999Y50945181D02*
X98404761Y50992800D01*
X98404761Y50992800D02*
X98357142Y51040420D01*
X98357142Y51040420D02*
X98309523Y51135658D01*
X98309523Y51135658D02*
X98309523Y51421372D01*
X98309523Y51421372D02*
X98357142Y51516610D01*
X98357142Y51516610D02*
X98404761Y51564229D01*
X98404761Y51564229D02*
X98499999Y51611848D01*
X98499999Y51611848D02*
X98642856Y51611848D01*
X98642856Y51611848D02*
X98738094Y51564229D01*
X98738094Y51564229D02*
X98785713Y51516610D01*
X98785713Y51516610D02*
X98833332Y51421372D01*
X98833332Y51421372D02*
X98833332Y51135658D01*
X98833332Y51135658D02*
X98785713Y51040420D01*
X98785713Y51040420D02*
X98738094Y50992800D01*
X98738094Y50992800D02*
X98642856Y50945181D01*
X98642856Y50945181D02*
X98499999Y50945181D01*
X99119047Y51611848D02*
X99499999Y51611848D01*
X99261904Y51945181D02*
X99261904Y51088039D01*
X99261904Y51088039D02*
X99309523Y50992800D01*
X99309523Y50992800D02*
X99404761Y50945181D01*
X99404761Y50945181D02*
X99499999Y50945181D01*
X100214285Y50992800D02*
X100119047Y50945181D01*
X100119047Y50945181D02*
X99928571Y50945181D01*
X99928571Y50945181D02*
X99833333Y50992800D01*
X99833333Y50992800D02*
X99785714Y51088039D01*
X99785714Y51088039D02*
X99785714Y51468991D01*
X99785714Y51468991D02*
X99833333Y51564229D01*
X99833333Y51564229D02*
X99928571Y51611848D01*
X99928571Y51611848D02*
X100119047Y51611848D01*
X100119047Y51611848D02*
X100214285Y51564229D01*
X100214285Y51564229D02*
X100261904Y51468991D01*
X100261904Y51468991D02*
X100261904Y51373753D01*
X100261904Y51373753D02*
X99785714Y51278515D01*
X101119047Y51611848D02*
X101119047Y50945181D01*
X100690476Y51611848D02*
X100690476Y51088039D01*
X100690476Y51088039D02*
X100738095Y50992800D01*
X100738095Y50992800D02*
X100833333Y50945181D01*
X100833333Y50945181D02*
X100976190Y50945181D01*
X100976190Y50945181D02*
X101071428Y50992800D01*
X101071428Y50992800D02*
X101119047Y51040420D01*
X101595238Y50945181D02*
X101595238Y51611848D01*
X101595238Y51421372D02*
X101642857Y51516610D01*
X101642857Y51516610D02*
X101690476Y51564229D01*
X101690476Y51564229D02*
X101785714Y51611848D01*
X101785714Y51611848D02*
X101880952Y51611848D01*
X102166667Y51849943D02*
X102214286Y51897562D01*
X102214286Y51897562D02*
X102309524Y51945181D01*
X102309524Y51945181D02*
X102547619Y51945181D01*
X102547619Y51945181D02*
X102642857Y51897562D01*
X102642857Y51897562D02*
X102690476Y51849943D01*
X102690476Y51849943D02*
X102738095Y51754705D01*
X102738095Y51754705D02*
X102738095Y51659467D01*
X102738095Y51659467D02*
X102690476Y51516610D01*
X102690476Y51516610D02*
X102119048Y50945181D01*
X102119048Y50945181D02*
X102738095Y50945181D01*
X20198809Y109680181D02*
X20198809Y110680181D01*
X20198809Y109727800D02*
X20103571Y109680181D01*
X20103571Y109680181D02*
X19913095Y109680181D01*
X19913095Y109680181D02*
X19817857Y109727800D01*
X19817857Y109727800D02*
X19770238Y109775420D01*
X19770238Y109775420D02*
X19722619Y109870658D01*
X19722619Y109870658D02*
X19722619Y110156372D01*
X19722619Y110156372D02*
X19770238Y110251610D01*
X19770238Y110251610D02*
X19817857Y110299229D01*
X19817857Y110299229D02*
X19913095Y110346848D01*
X19913095Y110346848D02*
X20103571Y110346848D01*
X20103571Y110346848D02*
X20198809Y110299229D01*
X20675000Y109680181D02*
X20675000Y110346848D01*
X20675000Y110156372D02*
X20722619Y110251610D01*
X20722619Y110251610D02*
X20770238Y110299229D01*
X20770238Y110299229D02*
X20865476Y110346848D01*
X20865476Y110346848D02*
X20960714Y110346848D01*
X21436905Y109680181D02*
X21341667Y109727800D01*
X21341667Y109727800D02*
X21294048Y109775420D01*
X21294048Y109775420D02*
X21246429Y109870658D01*
X21246429Y109870658D02*
X21246429Y110156372D01*
X21246429Y110156372D02*
X21294048Y110251610D01*
X21294048Y110251610D02*
X21341667Y110299229D01*
X21341667Y110299229D02*
X21436905Y110346848D01*
X21436905Y110346848D02*
X21579762Y110346848D01*
X21579762Y110346848D02*
X21675000Y110299229D01*
X21675000Y110299229D02*
X21722619Y110251610D01*
X21722619Y110251610D02*
X21770238Y110156372D01*
X21770238Y110156372D02*
X21770238Y109870658D01*
X21770238Y109870658D02*
X21722619Y109775420D01*
X21722619Y109775420D02*
X21675000Y109727800D01*
X21675000Y109727800D02*
X21579762Y109680181D01*
X21579762Y109680181D02*
X21436905Y109680181D01*
X22198810Y109680181D02*
X22198810Y110346848D01*
X22198810Y110680181D02*
X22151191Y110632562D01*
X22151191Y110632562D02*
X22198810Y110584943D01*
X22198810Y110584943D02*
X22246429Y110632562D01*
X22246429Y110632562D02*
X22198810Y110680181D01*
X22198810Y110680181D02*
X22198810Y110584943D01*
X22532143Y110346848D02*
X22913095Y110346848D01*
X22675000Y110680181D02*
X22675000Y109823039D01*
X22675000Y109823039D02*
X22722619Y109727800D01*
X22722619Y109727800D02*
X22817857Y109680181D01*
X22817857Y109680181D02*
X22913095Y109680181D01*
X23627381Y109727800D02*
X23532143Y109680181D01*
X23532143Y109680181D02*
X23341667Y109680181D01*
X23341667Y109680181D02*
X23246429Y109727800D01*
X23246429Y109727800D02*
X23198810Y109823039D01*
X23198810Y109823039D02*
X23198810Y110203991D01*
X23198810Y110203991D02*
X23246429Y110299229D01*
X23246429Y110299229D02*
X23341667Y110346848D01*
X23341667Y110346848D02*
X23532143Y110346848D01*
X23532143Y110346848D02*
X23627381Y110299229D01*
X23627381Y110299229D02*
X23675000Y110203991D01*
X23675000Y110203991D02*
X23675000Y110108753D01*
X23675000Y110108753D02*
X23198810Y110013515D01*
X24627381Y109680181D02*
X24055953Y109680181D01*
X24341667Y109680181D02*
X24341667Y110680181D01*
X24341667Y110680181D02*
X24246429Y110537324D01*
X24246429Y110537324D02*
X24151191Y110442086D01*
X24151191Y110442086D02*
X24055953Y110394467D01*
X6166666Y43915181D02*
X6166666Y43200896D01*
X6166666Y43200896D02*
X6119047Y43058039D01*
X6119047Y43058039D02*
X6023809Y42962800D01*
X6023809Y42962800D02*
X5880952Y42915181D01*
X5880952Y42915181D02*
X5785714Y42915181D01*
X7166666Y42915181D02*
X6595238Y42915181D01*
X6880952Y42915181D02*
X6880952Y43915181D01*
X6880952Y43915181D02*
X6785714Y43772324D01*
X6785714Y43772324D02*
X6690476Y43677086D01*
X6690476Y43677086D02*
X6595238Y43629467D01*
X116166666Y52945181D02*
X116166666Y52230896D01*
X116166666Y52230896D02*
X116119047Y52088039D01*
X116119047Y52088039D02*
X116023809Y51992800D01*
X116023809Y51992800D02*
X115880952Y51945181D01*
X115880952Y51945181D02*
X115785714Y51945181D01*
X117071428Y52611848D02*
X117071428Y51945181D01*
X116833333Y52992800D02*
X116595238Y52278515D01*
X116595238Y52278515D02*
X117214285Y52278515D01*
D11*
%TO.C,J3*%
X111640000Y61110000D02*
X111640000Y59860000D01*
X111940000Y60810000D02*
X111940000Y56090000D01*
X111940000Y59500000D02*
X112550000Y59500000D01*
X111940000Y58200000D02*
X112550000Y58200000D01*
X111940000Y56090000D02*
X120060000Y56090000D01*
X112550000Y60200000D02*
X112550000Y56700000D01*
X112550000Y56700000D02*
X119450000Y56700000D01*
X112890000Y61110000D02*
X111640000Y61110000D01*
X113400000Y61010000D02*
X113400000Y60810000D01*
X113700000Y61010000D02*
X113400000Y61010000D01*
X113700000Y60910000D02*
X113400000Y60910000D01*
X113700000Y60810000D02*
X113700000Y61010000D01*
X114500000Y60810000D02*
X114500000Y60200000D01*
X114500000Y60200000D02*
X112550000Y60200000D01*
X114900000Y57200000D02*
X115100000Y57200000D01*
X114900000Y56700000D02*
X114900000Y57200000D01*
X115000000Y56700000D02*
X115000000Y57200000D01*
X115100000Y57200000D02*
X115100000Y56700000D01*
X116900000Y57200000D02*
X117100000Y57200000D01*
X116900000Y56700000D02*
X116900000Y57200000D01*
X117000000Y56700000D02*
X117000000Y57200000D01*
X117100000Y57200000D02*
X117100000Y56700000D01*
X117500000Y60200000D02*
X117500000Y60810000D01*
X119450000Y60200000D02*
X117500000Y60200000D01*
X119450000Y56700000D02*
X119450000Y60200000D01*
X120060000Y60810000D02*
X111940000Y60810000D01*
X120060000Y59500000D02*
X119450000Y59500000D01*
X120060000Y58200000D02*
X119450000Y58200000D01*
X120060000Y56090000D02*
X120060000Y60810000D01*
%TO.C,codeur3*%
X109140000Y74610000D02*
X109140000Y73360000D01*
X109440000Y74310000D02*
X109440000Y69590000D01*
X109440000Y73000000D02*
X110050000Y73000000D01*
X109440000Y71700000D02*
X110050000Y71700000D01*
X109440000Y69590000D02*
X121560000Y69590000D01*
X110050000Y73700000D02*
X110050000Y70200000D01*
X110050000Y70200000D02*
X120950000Y70200000D01*
X110390000Y74610000D02*
X109140000Y74610000D01*
X110900000Y74510000D02*
X110900000Y74310000D01*
X111200000Y74510000D02*
X110900000Y74510000D01*
X111200000Y74410000D02*
X110900000Y74410000D01*
X111200000Y74310000D02*
X111200000Y74510000D01*
X112000000Y74310000D02*
X112000000Y73700000D01*
X112000000Y73700000D02*
X110050000Y73700000D01*
X112400000Y70700000D02*
X112600000Y70700000D01*
X112400000Y70200000D02*
X112400000Y70700000D01*
X112500000Y70200000D02*
X112500000Y70700000D01*
X112600000Y70700000D02*
X112600000Y70200000D01*
X114400000Y70700000D02*
X114600000Y70700000D01*
X114400000Y70200000D02*
X114400000Y70700000D01*
X114500000Y70200000D02*
X114500000Y70700000D01*
X114600000Y70700000D02*
X114600000Y70200000D01*
X116400000Y70700000D02*
X116600000Y70700000D01*
X116400000Y70200000D02*
X116400000Y70700000D01*
X116500000Y70200000D02*
X116500000Y70700000D01*
X116600000Y70700000D02*
X116600000Y70200000D01*
X118400000Y70700000D02*
X118600000Y70700000D01*
X118400000Y70200000D02*
X118400000Y70700000D01*
X118500000Y70200000D02*
X118500000Y70700000D01*
X118600000Y70700000D02*
X118600000Y70200000D01*
X119000000Y73700000D02*
X119000000Y74310000D01*
X120950000Y73700000D02*
X119000000Y73700000D01*
X120950000Y70200000D02*
X120950000Y73700000D01*
X121560000Y74310000D02*
X109440000Y74310000D01*
X121560000Y73000000D02*
X120950000Y73000000D01*
X121560000Y71700000D02*
X120950000Y71700000D01*
X121560000Y69590000D02*
X121560000Y74310000D01*
%TO.C,R4*%
X92380000Y94000000D02*
X93150000Y94000000D01*
X93150000Y95370000D02*
X93150000Y92630000D01*
X93150000Y92630000D02*
X99690000Y92630000D01*
X99690000Y95370000D02*
X93150000Y95370000D01*
X99690000Y92630000D02*
X99690000Y95370000D01*
X100460000Y94000000D02*
X99690000Y94000000D01*
%TO.C,R1*%
X92460000Y105500000D02*
X93230000Y105500000D01*
X93230000Y106870000D02*
X93230000Y104130000D01*
X93230000Y104130000D02*
X99770000Y104130000D01*
X99770000Y106870000D02*
X93230000Y106870000D01*
X99770000Y104130000D02*
X99770000Y106870000D01*
X100540000Y105500000D02*
X99770000Y105500000D01*
%TO.C,R3*%
X115130000Y23270000D02*
X115130000Y16730000D01*
X115130000Y16730000D02*
X117870000Y16730000D01*
X116500000Y24040000D02*
X116500000Y23270000D01*
X116500000Y15960000D02*
X116500000Y16730000D01*
X117870000Y23270000D02*
X115130000Y23270000D01*
X117870000Y16730000D02*
X117870000Y23270000D01*
D12*
%TO.C,gauche1*%
X20600000Y77010000D02*
G75*
G02*
X20400000Y77010000I-100000J0D01*
G01*
X20400000Y77010000D02*
G75*
G02*
X20600000Y77010000I100000J0D01*
G01*
D13*
X89000000Y29750000D02*
G75*
G02*
X87500000Y28250000I-1500000J0D01*
G01*
X87500000Y108750000D02*
G75*
G02*
X89000000Y107250000I0J-1500000D01*
G01*
X20500000Y28250000D02*
G75*
G02*
X19000000Y29750000I1J1500001D01*
G01*
X19000000Y107250000D02*
G75*
G02*
X20500000Y108750000I1500001J-1D01*
G01*
X89000000Y107250000D02*
X89000000Y29750000D01*
X87500000Y28250000D02*
X67000000Y28250000D01*
X67000000Y28250000D02*
X65000000Y26250000D01*
X65000000Y26250000D02*
X32000000Y26250000D01*
X32000000Y26250000D02*
X30000000Y28250000D01*
X30000000Y28250000D02*
X20500000Y28250000D01*
X26020000Y30020000D02*
X26020000Y78280000D01*
X26020000Y78280000D02*
X21020000Y78280000D01*
X21020000Y30020000D02*
X26020000Y30020000D01*
X21020000Y78280000D02*
X21020000Y30020000D01*
X20500000Y108750000D02*
X87500000Y108750000D01*
X19000000Y29750000D02*
X19000000Y107250000D01*
D11*
%TO.C,R6*%
X92460000Y72000000D02*
X93230000Y72000000D01*
X93230000Y73370000D02*
X93230000Y70630000D01*
X93230000Y70630000D02*
X99770000Y70630000D01*
X99770000Y73370000D02*
X93230000Y73370000D01*
X99770000Y70630000D02*
X99770000Y73370000D01*
X100540000Y72000000D02*
X99770000Y72000000D01*
%TO.C,R7*%
X92960000Y67500000D02*
X93730000Y67500000D01*
X93730000Y68870000D02*
X93730000Y66130000D01*
X93730000Y66130000D02*
X100270000Y66130000D01*
X100270000Y68870000D02*
X93730000Y68870000D01*
X100270000Y66130000D02*
X100270000Y68870000D01*
X101040000Y67500000D02*
X100270000Y67500000D01*
%TO.C,codeur2*%
X109640000Y96610000D02*
X109640000Y95360000D01*
X109940000Y96310000D02*
X109940000Y91590000D01*
X109940000Y95000000D02*
X110550000Y95000000D01*
X109940000Y93700000D02*
X110550000Y93700000D01*
X109940000Y91590000D02*
X122060000Y91590000D01*
X110550000Y95700000D02*
X110550000Y92200000D01*
X110550000Y92200000D02*
X121450000Y92200000D01*
X110890000Y96610000D02*
X109640000Y96610000D01*
X111400000Y96510000D02*
X111400000Y96310000D01*
X111700000Y96510000D02*
X111400000Y96510000D01*
X111700000Y96410000D02*
X111400000Y96410000D01*
X111700000Y96310000D02*
X111700000Y96510000D01*
X112500000Y96310000D02*
X112500000Y95700000D01*
X112500000Y95700000D02*
X110550000Y95700000D01*
X112900000Y92700000D02*
X113100000Y92700000D01*
X112900000Y92200000D02*
X112900000Y92700000D01*
X113000000Y92200000D02*
X113000000Y92700000D01*
X113100000Y92700000D02*
X113100000Y92200000D01*
X114900000Y92700000D02*
X115100000Y92700000D01*
X114900000Y92200000D02*
X114900000Y92700000D01*
X115000000Y92200000D02*
X115000000Y92700000D01*
X115100000Y92700000D02*
X115100000Y92200000D01*
X116900000Y92700000D02*
X117100000Y92700000D01*
X116900000Y92200000D02*
X116900000Y92700000D01*
X117000000Y92200000D02*
X117000000Y92700000D01*
X117100000Y92700000D02*
X117100000Y92200000D01*
X118900000Y92700000D02*
X119100000Y92700000D01*
X118900000Y92200000D02*
X118900000Y92700000D01*
X119000000Y92200000D02*
X119000000Y92700000D01*
X119100000Y92700000D02*
X119100000Y92200000D01*
X119500000Y95700000D02*
X119500000Y96310000D01*
X121450000Y95700000D02*
X119500000Y95700000D01*
X121450000Y92200000D02*
X121450000Y95700000D01*
X122060000Y96310000D02*
X109940000Y96310000D01*
X122060000Y95000000D02*
X121450000Y95000000D01*
X122060000Y93700000D02*
X121450000Y93700000D01*
X122060000Y91590000D02*
X122060000Y96310000D01*
%TO.C,LED1*%
X111890000Y33890000D02*
X111890000Y32640000D01*
X111890000Y32640000D02*
X113140000Y32640000D01*
X111990000Y34700000D02*
X111990000Y34400000D01*
X111990000Y34400000D02*
X112190000Y34400000D01*
X112090000Y34700000D02*
X112090000Y34400000D01*
X112190000Y39060000D02*
X112190000Y32940000D01*
X112190000Y35500000D02*
X112800000Y35500000D01*
X112190000Y34700000D02*
X111990000Y34700000D01*
X112190000Y32940000D02*
X116910000Y32940000D01*
X112800000Y38450000D02*
X112800000Y36500000D01*
X112800000Y36500000D02*
X112190000Y36500000D01*
X112800000Y35500000D02*
X112800000Y33550000D01*
X112800000Y33550000D02*
X116300000Y33550000D01*
X113500000Y39060000D02*
X113500000Y38450000D01*
X113500000Y32940000D02*
X113500000Y33550000D01*
X114800000Y39060000D02*
X114800000Y38450000D01*
X114800000Y32940000D02*
X114800000Y33550000D01*
X115800000Y36100000D02*
X116300000Y36100000D01*
X115800000Y35900000D02*
X115800000Y36100000D01*
X116300000Y38450000D02*
X112800000Y38450000D01*
X116300000Y36000000D02*
X115800000Y36000000D01*
X116300000Y35900000D02*
X115800000Y35900000D01*
X116300000Y33550000D02*
X116300000Y38450000D01*
X116910000Y39060000D02*
X112190000Y39060000D01*
X116910000Y32940000D02*
X116910000Y39060000D01*
%TO.C,R10*%
X108130000Y29690000D02*
X108130000Y23150000D01*
X108130000Y23150000D02*
X110870000Y23150000D01*
X109500000Y30460000D02*
X109500000Y29690000D01*
X109500000Y22380000D02*
X109500000Y23150000D01*
X110870000Y29690000D02*
X108130000Y29690000D01*
X110870000Y23150000D02*
X110870000Y29690000D01*
D13*
%TO.C,Rasp1*%
X18395000Y17500000D02*
X18395000Y-32500000D01*
X21395000Y-35500000D02*
X100395000Y-35500000D01*
X100395000Y20500000D02*
X21395000Y20500000D01*
X103395000Y-32500000D02*
X103395000Y17500000D01*
X18395000Y17500000D02*
G75*
G02*
X21395000Y20500000I3000001J-1D01*
G01*
X21395000Y-35500000D02*
G75*
G02*
X18395000Y-32500000I1J3000001D01*
G01*
X100395000Y20500000D02*
G75*
G02*
X103395000Y17500000I0J-3000000D01*
G01*
X103395000Y-32500000D02*
G75*
G02*
X100395000Y-35500000I-3000000J0D01*
G01*
D14*
X17695000Y15500000D02*
G75*
G02*
X17295000Y15500000I-200000J0D01*
G01*
X17295000Y15500000D02*
G75*
G02*
X17695000Y15500000I200000J0D01*
G01*
D11*
%TO.C,R2*%
X92540000Y99500000D02*
X93310000Y99500000D01*
X93310000Y100870000D02*
X93310000Y98130000D01*
X93310000Y98130000D02*
X99850000Y98130000D01*
X99850000Y100870000D02*
X93310000Y100870000D01*
X99850000Y98130000D02*
X99850000Y100870000D01*
X100620000Y99500000D02*
X99850000Y99500000D01*
%TO.C,codeur1*%
X109640000Y105610000D02*
X109640000Y104360000D01*
X109940000Y105310000D02*
X109940000Y100590000D01*
X109940000Y104000000D02*
X110550000Y104000000D01*
X109940000Y102700000D02*
X110550000Y102700000D01*
X109940000Y100590000D02*
X122060000Y100590000D01*
X110550000Y104700000D02*
X110550000Y101200000D01*
X110550000Y101200000D02*
X121450000Y101200000D01*
X110890000Y105610000D02*
X109640000Y105610000D01*
X111400000Y105510000D02*
X111400000Y105310000D01*
X111700000Y105510000D02*
X111400000Y105510000D01*
X111700000Y105410000D02*
X111400000Y105410000D01*
X111700000Y105310000D02*
X111700000Y105510000D01*
X112500000Y105310000D02*
X112500000Y104700000D01*
X112500000Y104700000D02*
X110550000Y104700000D01*
X112900000Y101700000D02*
X113100000Y101700000D01*
X112900000Y101200000D02*
X112900000Y101700000D01*
X113000000Y101200000D02*
X113000000Y101700000D01*
X113100000Y101700000D02*
X113100000Y101200000D01*
X114900000Y101700000D02*
X115100000Y101700000D01*
X114900000Y101200000D02*
X114900000Y101700000D01*
X115000000Y101200000D02*
X115000000Y101700000D01*
X115100000Y101700000D02*
X115100000Y101200000D01*
X116900000Y101700000D02*
X117100000Y101700000D01*
X116900000Y101200000D02*
X116900000Y101700000D01*
X117000000Y101200000D02*
X117000000Y101700000D01*
X117100000Y101700000D02*
X117100000Y101200000D01*
X118900000Y101700000D02*
X119100000Y101700000D01*
X118900000Y101200000D02*
X118900000Y101700000D01*
X119000000Y101200000D02*
X119000000Y101700000D01*
X119100000Y101700000D02*
X119100000Y101200000D01*
X119500000Y104700000D02*
X119500000Y105310000D01*
X121450000Y104700000D02*
X119500000Y104700000D01*
X121450000Y101200000D02*
X121450000Y104700000D01*
X122060000Y105310000D02*
X109940000Y105310000D01*
X122060000Y104000000D02*
X121450000Y104000000D01*
X122060000Y102700000D02*
X121450000Y102700000D01*
X122060000Y100590000D02*
X122060000Y105310000D01*
%TO.C,J2*%
X14670000Y70355000D02*
X16000000Y70355000D01*
X14670000Y69025000D02*
X14670000Y70355000D01*
X14670000Y67755000D02*
X14670000Y62615000D01*
X14670000Y67755000D02*
X17330000Y67755000D01*
X14670000Y62615000D02*
X17330000Y62615000D01*
X17330000Y67755000D02*
X17330000Y62615000D01*
%TO.C,Busmoteur1*%
X91140000Y60110000D02*
X91140000Y58860000D01*
X91440000Y59810000D02*
X91440000Y55090000D01*
X91440000Y58500000D02*
X92050000Y58500000D01*
X91440000Y57200000D02*
X92050000Y57200000D01*
X91440000Y55090000D02*
X103560000Y55090000D01*
X92050000Y59200000D02*
X92050000Y55700000D01*
X92050000Y55700000D02*
X102950000Y55700000D01*
X92390000Y60110000D02*
X91140000Y60110000D01*
X92900000Y60010000D02*
X92900000Y59810000D01*
X93200000Y60010000D02*
X92900000Y60010000D01*
X93200000Y59910000D02*
X92900000Y59910000D01*
X93200000Y59810000D02*
X93200000Y60010000D01*
X94000000Y59810000D02*
X94000000Y59200000D01*
X94000000Y59200000D02*
X92050000Y59200000D01*
X94400000Y56200000D02*
X94600000Y56200000D01*
X94400000Y55700000D02*
X94400000Y56200000D01*
X94500000Y55700000D02*
X94500000Y56200000D01*
X94600000Y56200000D02*
X94600000Y55700000D01*
X96400000Y56200000D02*
X96600000Y56200000D01*
X96400000Y55700000D02*
X96400000Y56200000D01*
X96500000Y55700000D02*
X96500000Y56200000D01*
X96600000Y56200000D02*
X96600000Y55700000D01*
X98400000Y56200000D02*
X98600000Y56200000D01*
X98400000Y55700000D02*
X98400000Y56200000D01*
X98500000Y55700000D02*
X98500000Y56200000D01*
X98600000Y56200000D02*
X98600000Y55700000D01*
X100400000Y56200000D02*
X100600000Y56200000D01*
X100400000Y55700000D02*
X100400000Y56200000D01*
X100500000Y55700000D02*
X100500000Y56200000D01*
X100600000Y56200000D02*
X100600000Y55700000D01*
X101000000Y59200000D02*
X101000000Y59810000D01*
X102950000Y59200000D02*
X101000000Y59200000D01*
X102950000Y55700000D02*
X102950000Y59200000D01*
X103560000Y59810000D02*
X91440000Y59810000D01*
X103560000Y58500000D02*
X102950000Y58500000D01*
X103560000Y57200000D02*
X102950000Y57200000D01*
X103560000Y55090000D02*
X103560000Y59810000D01*
%TO.C,codeur4*%
X109640000Y83610000D02*
X109640000Y82360000D01*
X109940000Y83310000D02*
X109940000Y78590000D01*
X109940000Y82000000D02*
X110550000Y82000000D01*
X109940000Y80700000D02*
X110550000Y80700000D01*
X109940000Y78590000D02*
X122060000Y78590000D01*
X110550000Y82700000D02*
X110550000Y79200000D01*
X110550000Y79200000D02*
X121450000Y79200000D01*
X110890000Y83610000D02*
X109640000Y83610000D01*
X111400000Y83510000D02*
X111400000Y83310000D01*
X111700000Y83510000D02*
X111400000Y83510000D01*
X111700000Y83410000D02*
X111400000Y83410000D01*
X111700000Y83310000D02*
X111700000Y83510000D01*
X112500000Y83310000D02*
X112500000Y82700000D01*
X112500000Y82700000D02*
X110550000Y82700000D01*
X112900000Y79700000D02*
X113100000Y79700000D01*
X112900000Y79200000D02*
X112900000Y79700000D01*
X113000000Y79200000D02*
X113000000Y79700000D01*
X113100000Y79700000D02*
X113100000Y79200000D01*
X114900000Y79700000D02*
X115100000Y79700000D01*
X114900000Y79200000D02*
X114900000Y79700000D01*
X115000000Y79200000D02*
X115000000Y79700000D01*
X115100000Y79700000D02*
X115100000Y79200000D01*
X116900000Y79700000D02*
X117100000Y79700000D01*
X116900000Y79200000D02*
X116900000Y79700000D01*
X117000000Y79200000D02*
X117000000Y79700000D01*
X117100000Y79700000D02*
X117100000Y79200000D01*
X118900000Y79700000D02*
X119100000Y79700000D01*
X118900000Y79200000D02*
X118900000Y79700000D01*
X119000000Y79200000D02*
X119000000Y79700000D01*
X119100000Y79700000D02*
X119100000Y79200000D01*
X119500000Y82700000D02*
X119500000Y83310000D01*
X121450000Y82700000D02*
X119500000Y82700000D01*
X121450000Y79200000D02*
X121450000Y82700000D01*
X122060000Y83310000D02*
X109940000Y83310000D01*
X122060000Y82000000D02*
X121450000Y82000000D01*
X122060000Y80700000D02*
X121450000Y80700000D01*
X122060000Y78590000D02*
X122060000Y83310000D01*
%TO.C,R9*%
X95460000Y78500000D02*
X96230000Y78500000D01*
X96230000Y79870000D02*
X96230000Y77130000D01*
X96230000Y77130000D02*
X102770000Y77130000D01*
X102770000Y79870000D02*
X96230000Y79870000D01*
X102770000Y77130000D02*
X102770000Y79870000D01*
X103540000Y78500000D02*
X102770000Y78500000D01*
%TO.C,R5*%
X92960000Y89000000D02*
X93730000Y89000000D01*
X93730000Y90370000D02*
X93730000Y87630000D01*
X93730000Y87630000D02*
X100270000Y87630000D01*
X100270000Y90370000D02*
X93730000Y90370000D01*
X100270000Y87630000D02*
X100270000Y90370000D01*
X101040000Y89000000D02*
X100270000Y89000000D01*
%TO.C,R8*%
X95380000Y83500000D02*
X96150000Y83500000D01*
X96150000Y84870000D02*
X96150000Y82130000D01*
X96150000Y82130000D02*
X102690000Y82130000D01*
X102690000Y84870000D02*
X96150000Y84870000D01*
X102690000Y82130000D02*
X102690000Y84870000D01*
X103460000Y83500000D02*
X102690000Y83500000D01*
%TO.C,JACK1*%
X96890000Y32890000D02*
X96890000Y31640000D01*
X96890000Y31640000D02*
X98140000Y31640000D01*
X96990000Y33700000D02*
X96990000Y33400000D01*
X96990000Y33400000D02*
X97190000Y33400000D01*
X97090000Y33700000D02*
X97090000Y33400000D01*
X97190000Y38060000D02*
X97190000Y31940000D01*
X97190000Y34500000D02*
X97800000Y34500000D01*
X97190000Y33700000D02*
X96990000Y33700000D01*
X97190000Y31940000D02*
X101910000Y31940000D01*
X97800000Y37450000D02*
X97800000Y35500000D01*
X97800000Y35500000D02*
X97190000Y35500000D01*
X97800000Y34500000D02*
X97800000Y32550000D01*
X97800000Y32550000D02*
X101300000Y32550000D01*
X98500000Y38060000D02*
X98500000Y37450000D01*
X98500000Y31940000D02*
X98500000Y32550000D01*
X99800000Y38060000D02*
X99800000Y37450000D01*
X99800000Y31940000D02*
X99800000Y32550000D01*
X100800000Y35100000D02*
X101300000Y35100000D01*
X100800000Y34900000D02*
X100800000Y35100000D01*
X101300000Y37450000D02*
X97800000Y37450000D01*
X101300000Y35000000D02*
X100800000Y35000000D01*
X101300000Y34900000D02*
X100800000Y34900000D01*
X101300000Y32550000D02*
X101300000Y37450000D01*
X101910000Y38060000D02*
X97190000Y38060000D01*
X101910000Y31940000D02*
X101910000Y38060000D01*
%TO.C,Busmoteur2*%
X92140000Y50610000D02*
X92140000Y49360000D01*
X92440000Y50310000D02*
X92440000Y45590000D01*
X92440000Y49000000D02*
X93050000Y49000000D01*
X92440000Y47700000D02*
X93050000Y47700000D01*
X92440000Y45590000D02*
X104560000Y45590000D01*
X93050000Y49700000D02*
X93050000Y46200000D01*
X93050000Y46200000D02*
X103950000Y46200000D01*
X93390000Y50610000D02*
X92140000Y50610000D01*
X93900000Y50510000D02*
X93900000Y50310000D01*
X94200000Y50510000D02*
X93900000Y50510000D01*
X94200000Y50410000D02*
X93900000Y50410000D01*
X94200000Y50310000D02*
X94200000Y50510000D01*
X95000000Y50310000D02*
X95000000Y49700000D01*
X95000000Y49700000D02*
X93050000Y49700000D01*
X95400000Y46700000D02*
X95600000Y46700000D01*
X95400000Y46200000D02*
X95400000Y46700000D01*
X95500000Y46200000D02*
X95500000Y46700000D01*
X95600000Y46700000D02*
X95600000Y46200000D01*
X97400000Y46700000D02*
X97600000Y46700000D01*
X97400000Y46200000D02*
X97400000Y46700000D01*
X97500000Y46200000D02*
X97500000Y46700000D01*
X97600000Y46700000D02*
X97600000Y46200000D01*
X99400000Y46700000D02*
X99600000Y46700000D01*
X99400000Y46200000D02*
X99400000Y46700000D01*
X99500000Y46200000D02*
X99500000Y46700000D01*
X99600000Y46700000D02*
X99600000Y46200000D01*
X101400000Y46700000D02*
X101600000Y46700000D01*
X101400000Y46200000D02*
X101400000Y46700000D01*
X101500000Y46200000D02*
X101500000Y46700000D01*
X101600000Y46700000D02*
X101600000Y46200000D01*
X102000000Y49700000D02*
X102000000Y50310000D01*
X103950000Y49700000D02*
X102000000Y49700000D01*
X103950000Y46200000D02*
X103950000Y49700000D01*
X104560000Y50310000D02*
X92440000Y50310000D01*
X104560000Y49000000D02*
X103950000Y49000000D01*
X104560000Y47700000D02*
X103950000Y47700000D01*
X104560000Y45590000D02*
X104560000Y50310000D01*
D12*
%TO.C,droite1*%
X81560000Y77010000D02*
G75*
G02*
X81360000Y77010000I-100000J0D01*
G01*
X81360000Y77010000D02*
G75*
G02*
X81560000Y77010000I100000J0D01*
G01*
D13*
X89000000Y29750000D02*
G75*
G02*
X87500000Y28250000I-1500000J0D01*
G01*
X87500000Y108750000D02*
G75*
G02*
X89000000Y107250000I0J-1500000D01*
G01*
X20500000Y28250000D02*
G75*
G02*
X19000000Y29750000I1J1500001D01*
G01*
X19000000Y107250000D02*
G75*
G02*
X20500000Y108750000I1500001J-1D01*
G01*
X89000000Y107250000D02*
X89000000Y29750000D01*
X87500000Y28250000D02*
X67000000Y28250000D01*
X86980000Y30020000D02*
X86980000Y78280000D01*
X86980000Y78280000D02*
X81980000Y78280000D01*
X81980000Y30020000D02*
X86980000Y30020000D01*
X81980000Y78280000D02*
X81980000Y30020000D01*
X67000000Y28250000D02*
X65000000Y26250000D01*
X65000000Y26250000D02*
X32000000Y26250000D01*
X32000000Y26250000D02*
X30000000Y28250000D01*
X30000000Y28250000D02*
X20500000Y28250000D01*
X20500000Y108750000D02*
X87500000Y108750000D01*
X19000000Y29750000D02*
X19000000Y107250000D01*
D11*
%TO.C,J1*%
X5170000Y42370000D02*
X6500000Y42370000D01*
X5170000Y41040000D02*
X5170000Y42370000D01*
X5170000Y39770000D02*
X5170000Y11770000D01*
X5170000Y39770000D02*
X7830000Y39770000D01*
X5170000Y11770000D02*
X7830000Y11770000D01*
X7830000Y39770000D02*
X7830000Y11770000D01*
%TO.C,J4*%
X112140000Y51610000D02*
X112140000Y50360000D01*
X112440000Y51310000D02*
X112440000Y46590000D01*
X112440000Y50000000D02*
X113050000Y50000000D01*
X112440000Y48700000D02*
X113050000Y48700000D01*
X112440000Y46590000D02*
X120560000Y46590000D01*
X113050000Y50700000D02*
X113050000Y47200000D01*
X113050000Y47200000D02*
X119950000Y47200000D01*
X113390000Y51610000D02*
X112140000Y51610000D01*
X113900000Y51510000D02*
X113900000Y51310000D01*
X114200000Y51510000D02*
X113900000Y51510000D01*
X114200000Y51410000D02*
X113900000Y51410000D01*
X114200000Y51310000D02*
X114200000Y51510000D01*
X115000000Y51310000D02*
X115000000Y50700000D01*
X115000000Y50700000D02*
X113050000Y50700000D01*
X115400000Y47700000D02*
X115600000Y47700000D01*
X115400000Y47200000D02*
X115400000Y47700000D01*
X115500000Y47200000D02*
X115500000Y47700000D01*
X115600000Y47700000D02*
X115600000Y47200000D01*
X117400000Y47700000D02*
X117600000Y47700000D01*
X117400000Y47200000D02*
X117400000Y47700000D01*
X117500000Y47200000D02*
X117500000Y47700000D01*
X117600000Y47700000D02*
X117600000Y47200000D01*
X118000000Y50700000D02*
X118000000Y51310000D01*
X119950000Y50700000D02*
X118000000Y50700000D01*
X119950000Y47200000D02*
X119950000Y50700000D01*
X120560000Y51310000D02*
X112440000Y51310000D01*
X120560000Y50000000D02*
X119950000Y50000000D01*
X120560000Y48700000D02*
X119950000Y48700000D01*
X120560000Y46590000D02*
X120560000Y51310000D01*
%TD*%
M02*
